<?xml version="1.0" encoding="UTF-8"?>
<!DOCTYPE svg  PUBLIC '-//W3C//DTD SVG 1.1//EN'  'http://www.w3.org/Graphics/SVG/1.1/DTD/svg11.dtd'>
<svg version="1.1" xmlns="http://www.w3.org/2000/svg">
<defs>
<font id="Banny-Round" horiz-adv-x="814">
<font-face font-family="Banny Round" font-weight="400" ascent="819" bbox="-11 -250 1146 999" cap-height="750" descent="-205" panose-1="0 0 0 0 0 0 0 0 0 0" underline-position="-150" underline-thickness="50" unicode-range="U+0020-00FE" units-per-em="1024" x-height="520"/>
<missing-glyph/>
<glyph glyph-name="space" horiz-adv-x="250" unicode=" "/>
<glyph d="M99 0q-33 0 -46 30q-4 10 -4 20q0 32 30 45q10 4 20 4h1q32 0 45 -29q4 -10 4 -20q0 -33 -29 -46q-10 -4 -20 -4h-1zM45 697q0 33 31 48q11 5 23 5q33 0 48 -30q5 -11 5 -23v-252l-1 -10l-37 -220q-3 -12 -15 -13q-13 1 -16 13l-37 220l-1 10v252z" glyph-name="exclam" horiz-adv-x="197" unicode="!"/>
<glyph d="M228 705q0 31 29 42q8 3 17 3q30 0 42 -28q3 -9 3 -17v-40q0 -1 -1 -9l-1 -8l-16 -56q-4 -16 -22 -20q-3 -1 -5 -1q-18 0 -27 18q-1 2 -1 3l-16 56l-1 6q-1 9 -1 11v40zM79 705q0 31 29 42q8 3 17 3q30 0 42 -28q3 -9 3 -17v-40q0 -1 -1 -9l-1 -8l-16 -56q-4 -16 -22 -20 q-3 -1 -5 -1q-18 0 -27 18q-1 2 -1 3l-16 56l-1 6q-1 9 -1 11v40z" glyph-name="quotedbl" horiz-adv-x="387" unicode='"'/>
<glyph d="M481 743q3 6 8 7q6 -2 6 -7l-15 -117q-5 -40 28 -60q16 -9 33 -9h70q24 0 31 -22q2 -8 1 -15q-4 -26 -29 -35q-7 -2 -13 -2h-86q-36 0 -54 -33q-5 -11 -7 -21l-12 -93q-5 -40 28 -60q16 -9 33 -9h62q24 0 31 -22q2 -8 1 -15q-4 -26 -29 -35q-7 -2 -13 -2h-78 q-36 0 -54 -33q-5 -11 -7 -21l-17 -132q-3 -6 -8 -7q-6 2 -6 7l15 117q5 40 -28 60q-16 9 -33 9h-66q-36 0 -54 -33q-5 -11 -7 -21l-17 -132q-3 -6 -8 -7q-6 2 -6 7l15 117q5 40 -28 60q-16 9 -33 9h-81q-24 0 -31 22q-2 8 -1 15q4 26 29 35q7 2 13 2h97q36 0 54 33 q5 11 7 21l12 93q5 40 -28 60q-16 9 -33 9h-73q-24 0 -31 22q-2 8 -1 15q4 26 29 35q7 2 13 2h89q36 0 54 33q5 11 7 21l17 132q3 6 8 7q6 -2 6 -7l-15 -117q-5 -40 28 -60q16 -9 33 -9h66q36 0 54 33q5 11 7 21zM311 483q-36 0 -54 -33q-5 -11 -7 -21l-12 -93 q-5 -40 28 -60q16 -9 33 -9h66q36 0 54 33q5 11 7 21l12 93q5 40 -28 60q-16 9 -33 9h-66z" glyph-name="numbersign" horiz-adv-x="668" unicode="#"/>
<glyph d="M323 797q0 19 19 26q5 2 9 2q19 0 26 -19q2 -5 2 -9v-48q0 -17 16 -34q2 -3 4 -4q58 -37 115 -97q2 -5 -2 -8q-6 -4 -12 2q-52 55 -101 86q-13 9 -18 -5q-1 -4 -1 -7v-217q0 -24 26 -49q9 -8 16 -11q138 -61 139 -196q0 -137 -103 -192q-21 -10 -44 -17q-20 -5 -31 -28 q-3 -8 -3 -14v-5q0 -22 -21 -28q-4 -1 -8 -1q-23 0 -29 21q-1 5 -1 8v26q-1 9 -11 12q-22 2 -43 6q-9 0 -11 -8v-36q0 -22 -21 -28q-4 -1 -8 -1q-23 0 -29 21q-1 5 -1 8v40q0 17 -21 42q-5 6 -8 8q-68 51 -105 130q-2 4 1 8l3 2l3 2q3 0 5 -3q39 -76 96 -123q15 -10 23 2 q3 5 3 10v244q0 21 -27 49q-9 9 -16 12q-110 59 -111 170q0 116 85 174q17 12 35 20q19 7 30 33q4 9 4 15v8q0 22 22 28q4 1 8 1q22 0 28 -21q1 -4 1 -8v-25q1 -11 11 -12q24 -2 44 -7q11 0 12 10v35zM308 437q11 0 12 10l1 274q-1 12 -12 16q-25 7 -43 7q-10 -2 -11 -11 v-273q1 -10 10 -13q14 -4 43 -10zM180 487q11 -10 15 3q1 3 1 5v198q0 9 -7 10q-3 -1 -6 -4q-36 -53 -36 -143q0 -40 33 -69zM266 336q-7 3 -10 -5q-1 -2 -1 -3v-303q1 -11 11 -14q24 -7 43 -8q9 0 11 10v302q-1 9 -11 13q-7 2 -21 4q-15 3 -22 4zM405 292q-16 11 -23 -5 q-2 -5 -2 -10v-234q0 -21 12 -20q5 1 10 5q58 51 58 176q-1 55 -55 88z" glyph-name="dollar" horiz-adv-x="598" unicode="$"/>
<glyph d="M584 -2q56 0 68 94q3 23 3 49q0 121 -53 140q-9 3 -18 3q-57 0 -69 -98q-3 -21 -3 -45q0 -122 55 -140q9 -3 17 -3zM584 -9q-89 0 -115 86q-8 29 -8 64q0 109 71 140q24 10 52 10q89 0 115 -86q8 -29 8 -64q0 -109 -71 -140q-24 -10 -52 -10zM180 466q57 0 69 98 q3 21 3 45q0 122 -55 140q-9 3 -17 3q-56 0 -68 -94q-3 -23 -3 -49q0 -121 53 -140q9 -3 18 -3zM180 459q-89 0 -115 86q-8 29 -8 64q0 109 71 140q24 10 52 10q89 0 115 -86q8 -29 8 -64q0 -109 -71 -140q-24 -10 -52 -10zM176 0q-11 0 -10 10l2 4l396 722q8 13 24 14 q11 0 10 -10l-2 -4l-396 -722q-8 -13 -24 -14z" glyph-name="percent" horiz-adv-x="764" unicode="%"/>
<glyph d="M622 8q0 -5 -4 -8q-74 -27 -148 26q-14 10 -38 2q-5 -2 -7 -3q-56 -43 -130 -43q-143 0 -213 82q-42 50 -42 118q0 66 93 135q25 18 53 33q14 7 8 25q-2 3 -3 5q-49 65 -51 149q0 97 74 142q42 25 97 25q99 0 141 -69q20 -34 20 -77q0 -39 -101 -103q-34 -21 -74 -41 q-6 -5 -1 -13q10 -13 48 -66q88 -119 130 -178q13 -19 26 -5q3 4 5 8q32 84 31 194q1 5 6 6q5 -3 6 -9q1 -115 -34 -201q-9 -18 2 -49q2 -6 4 -9q51 -73 50 -80l2 -3l-1 4l2 -2q22 2 42 9q5 0 7 -4zM265 429q16 -19 36 -7q70 41 87 99q4 14 4 26q0 95 -47 128q-16 11 -35 11 q-53 0 -75 -69q-11 -35 -11 -79q1 -58 41 -109zM222 345q-9 9 -19 4q-51 -34 -64 -114q-3 -20 -3 -39q0 -117 71 -170q39 -29 89 -29q74 1 130 47q10 11 -1 25q-30 33 -62 79z" glyph-name="ampersand" horiz-adv-x="683" unicode="&amp;"/>
<glyph d="M79 705q0 31 29 42q8 3 17 3q30 0 42 -28q3 -9 3 -17v-40q0 -1 -1 -9l-1 -8l-16 -56q-4 -16 -22 -20q-3 -1 -5 -1q-18 0 -27 18q-1 2 -1 3l-16 56l-1 6q-1 9 -1 11v40z" glyph-name="quotesingle" horiz-adv-x="219" unicode="'"/>
<glyph d="M285 778q16 14 32 3l3 -3q13 -18 -1 -33q-155 -144 -155 -410q1 -259 155 -400q15 -15 1 -33q-13 -14 -31 -3q-3 2 -4 3q-181 165 -181 433q1 277 181 443z" glyph-name="parenleft" horiz-adv-x="356" unicode="("/>
<glyph d="M71 -98q-16 -14 -32 -3l-3 3q-13 18 1 33q155 144 155 410q-1 259 -155 400q-15 15 -1 33q13 14 31 3q3 -2 4 -3q181 -165 181 -433q-1 -277 -181 -443z" glyph-name="parenright" horiz-adv-x="324" unicode=")"/>
<glyph d="M301 667q23 13 39 -6q5 -6 7 -12q7 -23 -13 -36q-6 -3 -13 -4l-40 -3q-27 -3 -32 -27q-2 -19 12 -33l31 -28q19 -17 6 -38q-4 -6 -8 -9q-21 -16 -39 2q-5 5 -7 10l-17 37q-12 26 -38 21q-18 -4 -26 -21l-17 -37q-10 -24 -33 -18q-7 2 -12 6q-21 15 -11 37q4 6 8 10l30 27 q22 19 8 43q-9 15 -28 17l-41 4q-23 2 -27 24q-1 8 1 16q9 24 33 21q7 -1 12 -4l35 -21q26 -15 44 5q11 14 7 32l-9 40q-5 24 17 34q6 3 13 3q23 0 30 -22q1 -8 0 -15l-9 -39q-6 -27 17 -39q17 -7 34 2z" glyph-name="asterisk" horiz-adv-x="386" unicode="*"/>
<glyph d="M265 171q0 36 -32 54q-14 7 -29 7h-151q-19 0 -26 19q-2 5 -2 9q0 19 19 26q5 2 9 2h151q36 0 54 32q7 14 7 29v141q0 23 22 29q4 1 8 1q23 0 29 -22q1 -4 1 -8v-141q0 -36 32 -54q14 -7 29 -7h151q19 0 26 -19q2 -5 2 -9q0 -19 -19 -26q-5 -2 -9 -2h-151q-36 0 -54 -32 q-7 -14 -7 -29v-141q0 -23 -22 -29q-4 -1 -8 -1q-23 0 -29 22q-1 4 -1 8v141z" glyph-name="plus" horiz-adv-x="590" unicode="+"/>
<glyph d="M50 50q0 32 30 45q10 4 20 4q32 0 45 -29q4 -10 4 -20v-50q0 -84 -51 -102q-11 -3 -23 -5q-23 2 -25 23v10q1 10 13 16q20 7 25 38q0 19 -18 20q-16 0 -19 15q-1 3 -1 5v30z" glyph-name="comma" horiz-adv-x="199" unicode=","/>
<glyph d="M88 225q-27 0 -36 25q-2 7 -2 13q0 27 25 36q7 2 13 2h189q27 0 36 -25q2 -7 2 -13q0 -27 -25 -36q-7 -2 -13 -2h-189z" glyph-name="hyphen" horiz-adv-x="365" unicode="-"/>
<glyph d="M100 0q-33 0 -46 30q-4 10 -4 20q0 32 30 45q10 4 20 4q32 0 45 -29q4 -10 4 -20q0 -33 -29 -46q-10 -4 -20 -4z" glyph-name="period" horiz-adv-x="199" unicode="."/>
<glyph d="M20 0q-12 0 -14 11q0 5 1 8l246 712q10 16 27 19q12 0 14 -11q0 -5 -1 -8l-246 -712q-10 -16 -27 -19z" glyph-name="slash" horiz-adv-x="300" unicode="/"/>
<glyph d="M164 375q3 -369 188 -372q185 10 188 372q0 249 -95 336q-41 36 -93 36q-107 0 -156 -141q-32 -93 -32 -231zM59 375q0 236 126 332q69 52 167 52q169 0 245 -147q48 -96 48 -237q0 -336 -226 -378q-32 -6 -67 -6q-242 0 -284 266q-9 54 -9 118z" glyph-name="zero" horiz-adv-x="700" unicode="0"/>
<glyph d="M310 50q0 -34 -31 -47q-10 -3 -19 -4q-33 0 -46 30q-4 10 -4 20v536q0 33 -30 44q-28 9 -49 -14l-74 -84q-4 -2 -6 3q0 8 6 16l156 179q11 14 39 20q4 1 7 1h12q26 0 36 -25q3 -7 3 -14v-661z" glyph-name="one" horiz-adv-x="410" unicode="1"/>
<glyph d="M136 0q-41 0 -54 35q-5 15 -4 30q10 116 76 173q40 34 121 67q111 45 154 121q18 32 18 63q0 119 -75 172q-42 29 -96 29q-93 0 -134 -70q-21 -38 -21 -85q1 -75 37 -125q3 -5 -2 -8q-6 -3 -11 1q-39 54 -39 132q0 123 85 184q56 40 132 40q119 0 178 -88q38 -58 38 -138 q0 -76 -103 -153q-62 -45 -143 -78q-113 -46 -154 -101q-17 -23 -27 -50q-15 -37 19 -49q11 -4 23 -4h351q32 0 45 -29q4 -10 4 -20q0 -32 -29 -45q-10 -4 -20 -4h-369z" glyph-name="two" horiz-adv-x="589" unicode="2"/>
<glyph d="M58 190q-7 42 29 53q9 2 19 2q28 0 47 -30q7 -11 8 -22q13 -127 84 -171q27 -17 59 -17q79 0 118 85q23 52 23 123q0 87 -72 127q-41 22 -94 22h-30q-23 0 -29 22q-1 4 -1 8v9q0 28 26 37q7 2 13 2h41q83 0 117 58q15 27 15 59q0 120 -63 168q-28 22 -63 22 q-64 0 -96 -82q-13 -33 -18 -72q-3 -27 -30 -45q-12 -8 -23 -8q-49 0 -48 37q0 6 1 10q19 107 112 151q47 21 103 21q123 0 183 -80q35 -49 35 -114q0 -81 -70 -131q-9 -5 -17 -10q-12 -6 -9 -21q2 -6 6 -9q92 -46 114 -137q6 -24 6 -48q0 -117 -94 -177q-65 -41 -156 -41 q-133 0 -202 94q-33 45 -44 105z" glyph-name="three" horiz-adv-x="599" unicode="3"/>
<glyph d="M25 211q0 4 3 11l338 501q11 17 40 25q7 2 11 2h7q26 0 36 -25q3 -7 3 -14v-436q0 -35 31 -50q13 -6 25 -6h49q6 -2 7 -7q-2 -6 -7 -7h-49q-35 0 -50 -31q-6 -13 -6 -25v-98q0 -32 -29 -46q-11 -5 -22 -5q-32 0 -46 29q-5 11 -5 22v93q0 36 -32 54q-14 7 -29 7h-269 q-5 1 -6 6zM105 315q-26 -38 -2 -71q19 -24 52 -25h145q36 0 54 32q7 14 7 29v269v8l10 82q2 17 -15 22q-14 3 -23 -8z" glyph-name="four" horiz-adv-x="595" unicode="4"/>
<glyph d="M116 342q-7 3 -7 10l46 345q5 33 37 48q12 5 24 5h263q31 0 43 -29q3 -10 3 -20q-2 -32 -33 -45q-10 -4 -20 -4h-246q-33 0 -52 -30q-6 -11 -8 -22l-24 -147q-1 -8 7 -10q4 0 6 1q61 39 150 39q134 0 203 -93q47 -64 47 -155q0 -129 -92 -197q-66 -47 -158 -47 q-133 0 -202 94q-33 45 -44 105q-7 42 29 53q9 2 19 2q28 0 47 -30q7 -11 8 -22q13 -127 84 -171q27 -17 59 -17q77 0 116 89q25 59 25 141q0 97 -71 141q-39 24 -89 24q-89 0 -147 -45q-6 -5 -11 -10q-5 -4 -12 -3z" glyph-name="five" horiz-adv-x="595" unicode="5"/>
<glyph d="M168 418q0 -8 8 -10q4 -1 6 1q45 58 136 65q12 1 24 1q128 0 194 -87q44 -60 44 -143q0 -134 -92 -204q-66 -50 -159 -50q-236 0 -263 300q-3 38 -3 79q0 239 113 336q62 53 150 53q109 0 174 -69q27 -29 39 -63q1 -6 -3 -10q-5 -2 -8 2q-27 77 -110 111q-44 17 -92 17 q-96 0 -136 -151q-19 -75 -22 -178zM339 464v1q-97 0 -148 -56q-13 -15 -20 -31q-2 -7 -3 -27q10 -346 161 -347q76 0 115 90q27 63 27 152q0 135 -64 192q-30 26 -68 26z" glyph-name="six" horiz-adv-x="591" unicode="6"/>
<glyph d="M30 701q0 32 29 45q10 4 20 4h352q32 0 45 -29q4 -10 4 -20v-23q0 -14 -19 -44q-3 -4 -5 -6q-139 -145 -181 -351q-20 -101 -23 -231q0 -37 -40 -45q-8 -1 -16 -1q-44 0 -53 35q-2 9 -2 18q12 208 144 393q32 44 71 90q29 33 14 75q-16 40 -55 41h-236q-32 0 -45 29 q-4 10 -4 20z" glyph-name="seven" horiz-adv-x="490" unicode="7"/>
<glyph d="M186 556q0 -122 92 -144q20 -5 41 -5q109 0 129 104q4 21 4 45q0 140 -78 179q-25 12 -55 12q-88 0 -120 -95q-13 -41 -13 -96zM93 564v-1q0 133 117 176q48 18 109 18q155 0 206 -102q20 -41 20 -93q-1 -119 -123 -154q-3 -1 -5 -5t-1.5 -8.5t2.5 -4.5q145 -34 155 -169 q1 -10 1 -19q0 -157 -147 -198q-48 -14 -108 -14q-196 0 -243 132q-12 37 -12 80q1 144 144 186q1 0 2.5 1.5t2.5 4t1.5 5t0.5 5t-1 4.5t-3 2q-117 38 -118 154zM173 209q0 -171 102 -202q21 -6 44 -6q110 0 138 124q8 38 8 85q0 150 -103 176q-20 5 -43 5q-116 0 -140 -119 q-6 -29 -6 -63z" glyph-name="eight" horiz-adv-x="629" unicode="8"/>
<glyph d="M289 275h1q-129 0 -195 88q-44 59 -44 142q0 134 92 204q66 50 159 50q236 0 263 -300q3 -38 3 -79q0 -239 -113 -336q-62 -53 -150 -53q-109 0 -174 69q-27 29 -39 63q-1 6 4 10q4 2 7 -2q27 -77 110 -111q44 -17 92 -17q96 0 136 151q19 75 22 178q0 8 -8 10 q-4 1 -6 -1q-46 -59 -141 -65q-10 -1 -19 -1zM292 287q98 0 148 56q13 14 20 30q2 7 3 27q-10 346 -161 347q-76 0 -115 -90q-27 -63 -27 -152q0 -135 64 -192q30 -26 68 -26z" glyph-name="nine" horiz-adv-x="591" unicode="9"/>
<glyph d="M100 421q-33 0 -46 30q-4 10 -4 20q0 32 30 45q10 4 20 4q32 0 45 -29q4 -10 4 -20q0 -33 -29 -46q-10 -4 -20 -4zM100 0q-33 0 -46 30q-4 10 -4 20q0 32 30 45q10 4 20 4q32 0 45 -29q4 -10 4 -20q0 -33 -29 -46q-10 -4 -20 -4z" glyph-name="colon" horiz-adv-x="199" unicode=":"/>
<glyph d="M100 421q-33 0 -46 30q-4 10 -4 20q0 32 30 45q10 4 20 4q32 0 45 -29q4 -10 4 -20q0 -33 -29 -46q-10 -4 -20 -4zM50 50q0 32 30 45q10 4 20 4q32 0 45 -29q4 -10 4 -20v-50q0 -84 -51 -102q-11 -3 -23 -5q-23 2 -25 23v10q1 10 13 16q20 7 25 38q0 19 -18 20 q-16 0 -19 15q-1 3 -1 5v30z" glyph-name="semicolon" horiz-adv-x="199" unicode=";"/>
<glyph d="M460 474q22 10 32 -10q3 -6 3 -13q0 -25 -24 -46q-6 -5 -11 -7l-197 -81q-39 -16 -40 -55.5t37 -57.5q2 -1 3 -1l197 -81q23 -10 33 -39q2 -8 2 -14q0 -21 -19 -25q-8 -1 -16 2l-384 166q-21 9 -29 37q-2 6 -2 11q0 24 22 42q5 4 9 6z" glyph-name="less" horiz-adv-x="555" unicode="&lt;"/>
<glyph d="M39 165q0 19 19 26q5 2 9 2h459q19 0 26 -19q2 -5 2 -9q0 -19 -19 -26q-5 -2 -9 -2h-459q-19 0 -26 19q-2 5 -2 9zM39 365q0 19 19 26q5 2 9 2h459q19 0 26 -19q2 -5 2 -9q0 -19 -19 -26q-5 -2 -9 -2h-459q-19 0 -26 19q-2 5 -2 9z" glyph-name="equal" horiz-adv-x="604" unicode="="/>
<glyph d="M292 203q39 16 40 55.5t-37 57.5q-2 1 -3 1l-197 81q-23 10 -33 39q-2 8 -2 14q0 21 19 25q8 1 16 -2l384 -166q21 -9 29 -37q2 -6 2 -11q0 -24 -22 -42q-5 -4 -9 -6l-384 -166q-22 -10 -32 10q-3 6 -3 13q0 25 24 46q6 5 11 7z" glyph-name="greater" horiz-adv-x="555" unicode="&gt;"/>
<glyph d="M274 0q-33 0 -46 30q-4 10 -4 20q0 32 30 45q10 4 20 4h1q32 0 45 -29q4 -10 4 -20q0 -33 -29 -46q-10 -4 -20 -4h-1zM65 551q-48 10 -36 51q29 95 131 136q55 21 120 21q130 0 195 -82q40 -52 40 -122q0 -99 -65 -152q-21 -16 -49 -31q-55 -28 -70 -62q-11 -25 -13 -65 q-1 -27 -27 -39q-9 -4 -17 -4q-32 0 -41 26q-2 7 -2 14q3 97 34 136q23 27 73 54q70 37 80 94q2 14 2 29q0 81 -66 116q-33 17 -74 17q-98 0 -144 -69q-11 -16 -17 -33q-8 -20 -34 -31q-11 -5 -19 -4h-1z" glyph-name="question" horiz-adv-x="565" unicode="?"/>
<glyph d="M1018 -132q4 3 9 1l1 -1l1 -2q-114 -80 -292 -106q-60 -9 -115 -9q-254 0 -409 142q-151 138 -156 364v12q0 228 148 370q151 144 401 148h12q248 0 394 -128q134 -118 134 -302q0 -193 -92 -292q-63 -67 -151 -67q-106 0 -151 80q-11 21 -17 45q-2 8 -17 3q-4 -2 -6 -4 q-46 -92 -142 -104q-12 -1 -23 -1q-131 0 -189 92q-41 66 -30 160q15 129 115 195q69 46 159 46q107 -2 133 -121q0 -2 2.5 -3t4.5 -0.5t2 2.5q11 110 23 111h73l2 -1l1 -3l2 -1q-18 -37 -30 -286q-16 -127 37 -179q24 -23 57 -23q84 0 131 113q39 95 39 238q0 195 -133 311 q-126 110 -327 110q-221 0 -357 -140t-136 -369t137 -369q138 -140 360 -140q169 0 320 67q42 19 75 41zM737 301q0 1 1 5q-4 191 -138 192q-84 0 -137 -91q-33 -59 -43 -138q-17 -143 46 -207q34 -33 82 -33q94 0 147 79q29 43 36 100q0 2 6 93z" glyph-name="at" horiz-adv-x="1202" unicode="@"/>
<glyph d="M313 700h1l9 25l5 13q6 11 18 12h56q28 0 50 -27q5 -6 7 -12l259 -660q11 -29 -12 -44q-10 -7 -22 -7h-42q-12 1 -18 13l-5 12l-6 17l-66 167q-10 25 -40 36q-10 3 -17 3h-295q-28 0 -50 -27q-5 -6 -7 -12l-66 -167l-6 -17l-7 -18q-5 -6 -11 -7q-6 1 -5 7zM191 344 q-16 -41 14 -68q18 -16 43 -16h190q42 0 57 35q10 24 0 49l-95 245q-15 40 -54.5 41.5t-57.5 -35.5q-1 -4 -2 -6z" glyph-name="A" horiz-adv-x="748" unicode="A"/>
<glyph d="M483 425q-5 -1 -2 -13q2 -3 3 -4q115 -23 157 -110q17 -37 17 -80q0 -137 -88 -184q-64 -34 -187 -34h-228q-36 0 -54 32q-7 14 -7 29v628q0 36 32 54q14 7 29 7h190q184 0 240 -73q35 -45 35 -125q0 -73 -91 -112q-22 -9 -46 -15zM195 480q0 -38 34 -55q14 -7 28 -7 l103 1q97 0 137 61q18 29 18 64q0 134 -67 173q-38 21 -102 21h-90q-36 0 -54 -32q-7 -14 -7 -29v-197zM195 73q0 -36 32 -54q14 -7 29 -7h123q112 0 147 78q22 50 22 139q0 108 -67 154q-34 24 -78 24h-147q-36 0 -54 -32q-7 -14 -7 -29v-273z" glyph-name="B" horiz-adv-x="693" unicode="B"/>
<glyph d="M666 172q5 6 10 4q4 -5 1 -13q-47 -101 -146 -146q-55 -26 -112 -26q-159 0 -262 115q-97 112 -98 269q0 157 96 266q106 116 264 118q99 0 190 -87q39 -38 67 -85q4 -7 0 -12q-5 -4 -11 3q-63 106 -160 149q-45 20 -86 20q-112 0 -184 -114q-67 -107 -67 -258 q0 -168 79 -276q71 -95 172 -96q104 0 185 81q39 39 62 88z" glyph-name="C" horiz-adv-x="701" unicode="C"/>
<glyph d="M350 0h-195q-36 0 -54 32q-7 14 -7 29v628q0 36 32 54q14 7 29 7h165q337 0 383 -282q7 -44 7 -93q0 -298 -221 -358q-61 -17 -139 -17zM195 73q0 -36 32 -54q14 -7 29 -7h93q198 0 240 217q12 64 12 146q0 340 -247 362q-17 1 -33 1h-65q-36 0 -54 -32q-7 -14 -7 -29 v-604z" glyph-name="D" horiz-adv-x="765" unicode="D"/>
<glyph d="M564 12q5 -1 6 -6q-1 -5 -6 -6h-409q-36 0 -54 32q-7 14 -7 29v628q0 36 32 54q14 7 29 7h394q5 -1 6 -6q-1 -5 -6 -6h-293q-36 0 -54 -32q-7 -14 -7 -29v-223q0 -36 32 -54q14 -7 29 -7h273q5 -1 6 -6q-1 -5 -6 -6h-273q-36 0 -54 -32q-7 -14 -7 -29v-247q0 -36 32 -54 q14 -7 29 -7h308z" glyph-name="E" horiz-adv-x="620" unicode="E"/>
<glyph d="M519 393q5 -1 6 -6q-1 -5 -6 -6h-263q-36 0 -54 -32q-7 -14 -7 -29v-269q0 -32 -29 -46q-11 -5 -21 -5q-32 0 -46 29q-5 11 -5 22v638q0 36 32 54q14 7 29 7h394q5 -1 6 -6q-1 -5 -6 -6h-293q-36 0 -54 -32q-7 -14 -7 -29v-223q0 -36 32 -54q14 -7 29 -7h263z" glyph-name="F" horiz-adv-x="585" unicode="F"/>
<glyph d="M468 398q-5 1 -6 6q0 4 5 6h178q36 0 54 -32q7 -14 7 -29v-216q0 -20 -19 -43q-3 -4 -6 -6q-123 -93 -238 -93q-185 0 -292 119q-93 105 -93 265q0 184 119 291q105 93 266 93q103 0 202 -130l29 -41l3 -4q2 -5 -1 -8l-1 -1q-5 -4 -11 3q-63 107 -149 150q-38 19 -71 19 q-134 0 -211 -118q-65 -101 -65 -254q0 -194 99 -297q73 -75 177 -75q104 1 224 90q17 12 23 40q1 5 1 8v196q0 36 -32 54q-14 7 -29 7h-163z" glyph-name="G" horiz-adv-x="752" unicode="G"/>
<glyph d="M666 50q0 -31 -29 -45q-10 -5 -21 -5q-32 0 -46 29q-5 11 -5 22v277q0 36 -32 54q-14 7 -29 7h-248q-36 0 -54 -32q-7 -14 -7 -29v-277q0 -32 -29 -46q-11 -5 -21 -5q-32 0 -46 29q-5 11 -5 22v649q0 31 29 45q11 5 22 5q31 0 45 -29q5 -10 5 -21v-238q0 -36 32 -54 q14 -7 29 -7h248q36 0 54 32q7 14 7 29v238q0 31 29 45q11 5 22 5q31 0 45 -29q5 -10 5 -21v-650z" glyph-name="H" horiz-adv-x="751" unicode="H"/>
<glyph d="M189 51q0 -32 -29 -46q-11 -5 -22 -5q-32 0 -46 29q-5 11 -5 22v648q0 32 29 46q11 5 22 5q32 0 46 -29q5 -11 5 -22v-648z" glyph-name="I" horiz-adv-x="274" unicode="I"/>
<glyph d="M56 250q0 23 23 33q4 2 8 3l45 8q19 3 24 -15q1 -3 1 -6v-26q0 -211 72 -238q12 -4 26 -4q68 0 89 117q8 43 8 98v480q0 31 29 45q11 5 22 5q31 0 45 -29q5 -10 5 -21v-480q0 -150 -96 -205q-44 -24 -102 -24q-150 0 -186 120q-13 45 -13 107v32z" glyph-name="J" horiz-adv-x="538" unicode="J"/>
<glyph d="M640 8q3 -6 -5 -8h-77q-23 0 -47 22q-4 4 -6 7l-188 310q-19 31 -52 24q-16 -5 -27 -17l-29 -34q-10 -16 -15 -40v-221q0 -32 -29 -46q-11 -5 -21 -5q-32 0 -46 29q-5 11 -5 22v649q0 31 29 45q11 5 22 5q31 0 45 -29q5 -10 5 -21v-220q0 -42 37 -58q38 -16 68 15l3 3 l226 262q1 1 4 5t7.5 9t9.5 11t9 11t8 8l3 4q2 1 10 0q5 -1 3 -7l-30 -34l-4 -6l-4 -6l-161 -184q-20 -24 -12 -58q3 -8 6 -14l237 -391q12 -17 26 -42z" glyph-name="K" horiz-adv-x="655" unicode="K"/>
<glyph d="M508 12q5 -1 6 -6q-1 -5 -6 -6h-360q-36 0 -54 32q-7 14 -7 29v638q0 32 29 46q11 5 22 5q32 0 46 -29q5 -11 5 -22v-626q0 -36 32 -54q14 -7 29 -7h258z" glyph-name="L" horiz-adv-x="544" unicode="L"/>
<glyph d="M130 8q-1 -7 -7 -8q-7 2 -8 8v690q0 34 30 47q11 5 22 5h5q30 0 51 -28q6 -9 8 -17l129 -467q11 -40 51 -45q40 -6 60 27q5 8 8 17l131 468q8 28 40 41q11 4 20 4h7q34 0 49 -31q5 -11 5 -23v-646q0 -33 -29 -46q-10 -4 -20 -4q-33 0 -46 30q-4 10 -4 20v316q0 34 -34 45 t-55 -13q-7 -8 -10 -18l-95 -337q-7 -27 -38 -39q-10 -4 -19 -4q-30 0 -49 27q-6 8 -8 16l-95 335q-9 33 -46 34q-35 1 -49 -27q-4 -10 -4 -20v-357z" glyph-name="M" horiz-adv-x="816" unicode="M"/>
<glyph d="M130 8q-1 -7 -7 -8q-7 2 -8 8v686q0 35 32 51q12 5 25 5h16q26 0 48 -25q5 -6 8 -11l202 -442q18 -38 60 -34q38 3 52 36q5 12 5 24v445q2 6 8 7q6 -2 7 -7v-682q0 -39 -34 -55q-13 -6 -26 -6h-21q-26 0 -48 25q-5 6 -8 11l-194 424q-18 38 -60 35q-38 -3 -52 -37 q-5 -12 -5 -24v-426z" glyph-name="N" horiz-adv-x="663" unicode="N"/>
<glyph d="M173 375q0 -200 91 -302q62 -70 148 -70q116 0 182 118q56 101 56 254q0 177 -82 285q-66 86 -156 87q-101 0 -170 -105q-69 -108 -69 -267zM64 375q0 166 102 276q100 108 246 108q147 0 246 -108q101 -111 101 -276q0 -189 -112 -295q-94 -89 -235 -89q-167 0 -263 119 q-85 104 -85 265z" glyph-name="O" unicode="O"/>
<glyph d="M195 51q0 -32 -29 -46q-11 -5 -21 -5q-32 0 -46 29q-5 11 -5 22v638q0 36 32 54q14 7 29 7h198q235 -2 236 -225q0 -187 -203 -201q-17 -1 -33 -1h-97q-36 0 -54 -32q-7 -14 -7 -29v-211zM195 396q0 -36 32 -54q14 -7 29 -7h98q129 0 134 176v14q-1 212 -136 213h-96 q-36 0 -54 -32q-7 -14 -7 -29v-281z" glyph-name="P" horiz-adv-x="624" unicode="P"/>
<glyph d="M173 375q0 -200 91 -302q62 -70 148 -70q42 0 77 16q12 4 6 15l-3 3l-52 47q-2 4 0 9q4 2 9 -1q29 -25 61 -42q17 -8 27 0q96 83 111 268q2 28 2 57q0 177 -82 285q-66 86 -156 87q-101 0 -170 -105q-69 -108 -69 -267zM64 375q0 166 101 276q100 108 246 108 q147 0 246 -108q101 -111 101 -276q0 -186 -109 -293q-24 -23 -51 -40q-16 -10 -8 -26q4 -6 10 -9q11 -4 22.5 -8.5t21 -8t18.5 -6.5t16 -5.5t12 -4t8 -2.5l4 -1q10 -3 -5 -12q-15 -10 -19 -14l-12 -12l-21 -23l-93 75l-12 10q-9 9 -30 8h-4q-44 -12 -94 -12 q-167 0 -263 119q-85 104 -85 265z" glyph-name="Q" unicode="Q"/>
<glyph d="M532 0q-24 0 -46 22q-5 6 -8 11l-137 255q-14 28 8 45q11 7 24 7h21q24 0 46 -22q5 -6 8 -11l142 -265q1 -1 2.5 -4l3.5 -7l4 -8l4 -8t4 -7t3 -6l1 -2q2 -3 -1 -4q-1 0 -7 2q-8 2 -12 2h-60zM195 51q0 -32 -29 -46q-11 -5 -21 -5q-32 0 -46 29q-5 11 -5 22v638 q0 36 32 54q14 7 29 7h198q235 -2 236 -225q-8 -179 -236 -182h-97q-36 0 -54 -32q-7 -14 -7 -29v-231zM195 416q0 -36 32 -54q14 -7 29 -7h97q134 2 135 170q-1 212 -136 213h-96q-36 0 -54 -32q-7 -14 -7 -29v-261z" glyph-name="R" horiz-adv-x="624" unicode="R"/>
<glyph d="M512 617q5 -7 2 -11q-6 -4 -12 2q-111 119 -214 135q-13 2 -25 2q-65 0 -96 -78q-18 -47 -18 -110q2 -91 165 -120q245 -49 249 -227q0 -136 -102 -191q-54 -28 -129 -28q-129 0 -218 104q-28 33 -49 74q-3 7 0 12l3 2l3 2l3 2q61 -132 179 -171q39 -12 79 -12 q89 0 118 106q12 42 12 96q-2 98 -176 129q-240 45 -242 211q0 117 86 175q56 38 133 38q101 0 216 -109q17 -16 33 -33z" glyph-name="S" horiz-adv-x="598" unicode="S"/>
<glyph d="M579 750q5 -1 6 -6q-1 -5 -6 -6h-170q-36 0 -54 -32q-7 -14 -7 -29v-626q0 -32 -29 -46q-11 -5 -21 -5q-32 0 -46 29q-5 11 -5 22v626q0 36 -32 54q-14 7 -29 7h-170q-5 1 -6 6q1 5 6 6h563z" glyph-name="T" horiz-adv-x="595" unicode="T"/>
<glyph d="M588 743q2 6 8 7q6 -2 7 -7v-449q0 -276 -216 -301q-21 -2 -42 -2q-228 0 -255 236q-3 31 -3 64v409q0 31 29 45q11 5 22 5q31 0 45 -29q5 -10 5 -21v-392q1 -302 157 -303q217 0 240 235q3 28 3 57v446z" glyph-name="U" horiz-adv-x="683" unicode="U"/>
<glyph d="M555 750l7 1q5 -2 5 -7l-12 -41l-200 -658q-8 -27 -39 -40q-11 -4 -20 -4h-4q-30 0 -51 29q-5 7 -7 14l-201 659l-7 23q-5 16 10 23q4 1 7 1l76 1q7 -1 11 -8l2 -8l146 -510q11 -39 50 -45t60 28q4 8 7 16l144 476l2 4q2 10 14 46z" glyph-name="V" horiz-adv-x="615" unicode="V"/>
<glyph d="M774 702l1 -2q-61 -324 -120 -648q-6 -31 -36 -46q-12 -6 -23 -6q-33 0 -51 30q-5 9 -7 18l-65 345q-7 38 -46 47q-40 8 -63 -22q-9 -11 -12 -25l-65 -345q-6 -31 -38 -44q-10 -4 -20 -4q-33 0 -51 30q-5 9 -7 18l-120 654l-4 24q-4 18 13 23q4 1 7 1h32q33 0 53 -30 q6 -11 8 -21l54 -322q6 -38 45 -47q39 -10 63 18q10 13 13 28l62 326q6 31 38 44q10 4 20 4q33 0 51 -30q5 -9 7 -18l64 -338q7 -38 46 -46q39 -9 62 19q9 12 12 27l62 338l3 23l3 17q3 7 10 8q6 -1 7 -8z" glyph-name="W" horiz-adv-x="815" unicode="W"/>
<glyph d="M103 50h1q-1 -1 -36 -47q-3 -2 -6 -3h-4q-6 1 -4 7l237 314q15 20 6 57q-2 9 -5 15q-30 51 -88 153q-59 103 -88 154q-14 24 3 42q9 8 21 8h52l29 -50l108 -187q21 -38 60 -32q26 4 42 25l146 194q1 1 36 47q3 2 6 3h5q5 -1 3 -7l-220 -291q-19 -24 -11 -54q2 -6 4 -10 q182 -316 200 -346q13 -24 -9 -37q-9 -5 -20 -5h-24q-20 0 -38 18q-3 4 -5 7l-15 25l-121 210q-21 36 -59 32q-26 -4 -43 -26z" glyph-name="X" horiz-adv-x="671" unicode="X"/>
<glyph d="M580 743q5 6 12 7l2 -1h6q-1 -2 -14 -25q-32 -57 -98 -172q-66 -114 -98 -171q-6 -8 -11 -34v-297q0 -32 -29 -46q-11 -5 -22 -5q-32 0 -46 29q-5 11 -5 22v263q0 13 -6 27q-43 75 -130 225q-55 96 -82 143q-14 22 6 36q9 6 21 6h22q21 0 40 -19q2 -4 4 -6l14 -25 l185 -324q3 -5 10 -6q7 1 10 6z" glyph-name="Y" horiz-adv-x="632" unicode="Y"/>
<glyph d="M604 12q5 -1 6 -6q-1 -5 -6 -6h-553q-5 1 -6 6q0 1 0.5 3.5t1.5 4.5l1 3l391 627q24 39 -2 71q-19 22 -51 23h-320q-5 1 -6 6q1 5 6 6h538q5 -1 6 -6q0 -1 -0.5 -3.5t-1.5 -4.5l-1 -3l-391 -627q-24 -39 2 -71q19 -22 51 -23h335z" glyph-name="Z" horiz-adv-x="655" unicode="Z"/>
<glyph d="M250 698q-36 0 -54 -32q-7 -14 -7 -29v-639q0 -36 32 -54q14 -7 29 -7h43q19 0 25 -18q1 -5 1 -8q0 -19 -18 -25q-5 -1 -8 -1h-103q-36 0 -54 32q-7 14 -7 29v743q0 36 32 54q14 7 29 7h103q19 0 25 -18q1 -5 1 -8q0 -19 -18 -25q-5 -1 -8 -1h-43z" glyph-name="bracketleft" horiz-adv-x="349" unicode="["/>
<glyph d="M310 0q-16 0 -25 16q-1 2 -2 3l-276 712q-6 14 9 18q2 1 4 1q16 0 25 -16q1 -2 2 -3l276 -712q6 -14 -9 -18q-2 -1 -4 -1z" glyph-name="backslash" horiz-adv-x="330" unicode="\"/>
<glyph d="M160 637q0 36 -32 54q-14 7 -29 7h-43q-19 0 -25 18q-1 5 -1 8q0 19 18 25q5 1 8 1h103q36 0 54 -32q7 -14 7 -29v-743q0 -36 -32 -54q-14 -7 -29 -7h-103q-19 0 -25 18q-1 5 -1 8q0 19 18 25q5 1 8 1h43q36 0 54 32q7 14 7 29v639z" glyph-name="bracketright" horiz-adv-x="345" unicode="]"/>
<glyph d="M181 676q-10 4 -18 -3q-2 -3 -3 -3l-59 -54q-17 -12 -42 -16h-17q-18 0 -21 16q0 9 5 16l80 96q10 13 39 21q5 1 8 1h34q19 0 42 -17l5 -5l80 -96q12 -16 -2 -27q-6 -5 -13 -5h-12h-3h-4h-3h-3h-3h-4h-3h-7l-40 46q-22 22 -36 30z" glyph-name="asciicircum" horiz-adv-x="340" unicode="^"/>
<glyph d="M78 -128q-19 0 -26 19q-2 5 -2 9q0 19 19 26q5 2 9 2h524q19 0 26 -19q2 -5 2 -9q0 -19 -19 -26q-5 -2 -9 -2h-524z" glyph-name="underscore" horiz-adv-x="680" unicode="_"/>
<glyph d="M162 600q-22 0 -45 20q-5 5 -7 9l-43 70q-15 25 4 42q10 9 24 9h18q27 0 49 -26q5 -8 8 -14l27 -71q9 -23 -11 -35q-8 -4 -16 -4h-8z" glyph-name="grave" horiz-adv-x="340" unicode="`"/>
<glyph d="M84 381q-5 3 -4 9q31 85 113 121q40 18 84 18q197 -2 198 -185v-257q0 -16 9 -18q6 -2 15 -2q15 0 20 -15q1 -3 1 -6v-12q0 -24 -24 -32q-6 -2 -12 -2q-72 1 -88 17q-12 15 -12 70v20q-1 1 -5 -3q-26 -108 -142 -113h-12q-178 1 -179 103q0 86 77 126q44 22 101 22 q124 0 151 80q9 26 9 61q-1 134 -107 135q-91 0 -150 -72q-23 -28 -35 -61q-3 -4 -8 -4zM384 287q0 5 -8 6q-4 -1 -5 -3q-36 -57 -139 -57q-59 0 -83 -65q-12 -31 -12 -71q2 -96 93 -97q115 0 144 100q8 27 10 62v125z" glyph-name="a" horiz-adv-x="550" unicode="a"/>
<glyph d="M167 46q0 -31 -28 -43q-9 -3 -17 -3q-32 0 -43 29q-3 8 -3 17v659q0 31 29 42q8 3 17 3q30 0 42 -28q3 -9 3 -17v-297q0 -7 10 -7q4 2 5 3q46 124 173 125q100 0 154 -96q40 -71 40 -173q0 -151 -80 -225q-49 -44 -114 -44q-128 1 -173 125q-2 6 -12 1q-2 -3 -3 -5v-66z M167 260q0 -196 120 -236q27 -9 58 -9q55 0 84 89q21 65 21 156q0 171 -54 234q-21 23 -46 24q-130 0 -168 -137q-15 -53 -15 -121z" glyph-name="b" horiz-adv-x="599" unicode="b"/>
<glyph d="M493 134q3 4 8 3q5 -4 4 -10q-35 -87 -112 -121q-33 -15 -68 -15q-188 0 -246 140q-23 56 -23 129q0 199 155 252q51 17 114 17q101 -1 179 -153q1 -6 -3 -9q-5 -2 -9 4q-76 146 -167 147q-120 0 -156 -136q-14 -53 -14 -122q0 -208 116 -249q25 -9 54 -9q78 0 133 71 q22 28 35 61z" glyph-name="c" horiz-adv-x="537" unicode="c"/>
<glyph d="M155 260q0 -169 57 -232q23 -25 51 -26q101 0 154 94q38 68 38 164q0 146 -80 216q-48 42 -112 42q-57 0 -87 -93q-21 -68 -21 -165zM56 260q0 149 81 223q51 46 121 46q104 0 160 -96q12 -22 21 -46q2 -5 12 -2q2 3 3 4v316q0 31 29 42q8 3 17 3q30 0 42 -28q3 -9 3 -17 v-659q0 -31 -28 -43q-9 -3 -17 -3q-32 0 -43 29q-3 8 -3 17v85q0 6 -10 4q-4 -1 -5 -2q-38 -107 -128 -134q-26 -8 -53 -8q-105 0 -161 96q-41 71 -41 173z" glyph-name="d" horiz-adv-x="616" unicode="d"/>
<glyph d="M498 133q3 5 9 4q5 -4 4 -9q-25 -81 -116 -117q-51 -20 -110 -20q-159 0 -209 138q-20 57 -20 131q0 206 144 255q41 14 91 14q207 -2 232 -219q5 -45 -36 -57q-11 -3 -22 -3h-248q-46 0 -57 -37q-3 -11 -2 -23q16 -171 109 -187q9 -1 18 -1q112 0 176 68q26 28 37 63z M373 260q40 0 54 35q5 15 4 31q-19 191 -140 192q-103 0 -129 -155q-3 -20 -5 -41q-3 -41 32 -56q13 -6 27 -6h157z" glyph-name="e" horiz-adv-x="543" unicode="e"/>
<glyph d="M317 750q4 -2 5 -5q-1 -5 -5 -6h-86q-24 -2 -24 -110v-54q0 -37 33 -51q11 -4 22 -4h55q4 -2 5 -5q-1 -5 -5 -6h-52q-36 0 -52 -32q-6 -12 -6 -25v-406q0 -31 -28 -43q-9 -3 -17 -3q-32 0 -43 29q-3 8 -3 17v420q0 30 -27 40q-8 3 -16 3h-37q-6 0 -6 6q2 4 6 5h37 q30 0 40 27q3 8 3 16v66q0 91 53 112q24 9 58 9h90z" glyph-name="f" horiz-adv-x="392" unicode="f"/>
<glyph d="M78 -97q0 7 7 8q5 -1 8 -6q13 -54 210 -54q141 2 142 149v135q0 6 -10 4q-4 -1 -5 -2q-36 -102 -124 -129q-26 -8 -53 -8q-187 0 -196 235q-1 13 -1 25q1 268 197 269q101 0 155 -94q13 -23 22 -48q2 -6 12 -2q2 2 3 4v86q0 31 29 42q8 3 17 3q30 0 42 -28q3 -9 3 -17 v-436q0 -190 -210 -200h-21q-215 1 -227 64zM155 260q1 -248 103 -249q99 0 151 92q36 65 36 157q0 147 -78 217q-47 41 -109 41q-103 -2 -103 -258z" glyph-name="g" horiz-adv-x="606" unicode="g"/>
<glyph d="M479 46q0 -30 -28 -43q-9 -3 -18 -4q-30 0 -42 28q-4 9 -4 18v269q0 173 -46 194q-6 3 -11 3q-93 0 -137 -76q-27 -45 -27 -106v-284q0 -31 -28 -43q-9 -3 -17 -3q-32 0 -43 29q-3 8 -3 17v659q0 31 29 42q8 3 17 3q30 0 42 -28q3 -9 3 -17v-278q0 -6 10 -4q3 1 4 2 q36 85 126 99q15 2 30 2q94 0 127 -101q16 -46 16 -109v-269z" glyph-name="h" horiz-adv-x="549" unicode="h"/>
<glyph d="M127 600q-33 0 -46 30q-4 10 -4 20q0 32 30 45q10 4 20 4q32 0 45 -29q4 -10 4 -20q0 -33 -29 -46q-10 -4 -20 -4zM173 46q0 -30 -28 -42q-9 -4 -18 -4q-30 0 -42 28q-4 9 -4 18v428q0 30 28 42q9 4 18 4q30 0 42 -28q4 -9 4 -18v-428z" glyph-name="i" horiz-adv-x="243" unicode="i"/>
<glyph d="M127 600q-33 0 -46 30q-4 10 -4 20q0 32 30 45q10 4 20 4q32 0 45 -29q4 -10 4 -20q0 -33 -29 -46q-10 -4 -20 -4zM-4 -81q0 6 6 6h29q6 0 11.5 2.5t10 6.5t8 9.5t6.5 11.5t5 12l4 12t3 10t1 7l1 4v4v470q0 30 28 42q9 4 18 4q30 0 42 -28q4 -9 4 -18v-464v-9v-1l-13 -25 q-44 -60 -125 -61h-33q-5 1 -6 5z" glyph-name="j" horiz-adv-x="243" unicode="j"/>
<glyph d="M439 514q6 5 14 6l1 -1h7q-2 -2 -24 -25l-110 -113q-23 -23 -15 -58q2 -10 6 -17l161 -261l14 -20l8 -12q2 -10 -8 -13h-60q-22 0 -45 20q-5 5 -7 9l-135 213q-15 23 -38 13q-7 -3 -12 -8l-11 -11q-12 -12 -17 -38q-1 -3 -1 -5v-147q0 -31 -28 -43q-9 -3 -17 -3 q-32 0 -43 29q-3 8 -3 17v659q0 31 29 42q8 3 17 3q30 0 42 -28q3 -9 3 -17v-319q0 -43 37 -58q38 -15 68 15l124 127l12 12z" glyph-name="k" horiz-adv-x="518" unicode="k"/>
<glyph d="M173 46q0 -30 -28 -42q-9 -4 -18 -4q-30 0 -42 28q-4 9 -4 18v658q0 30 28 42q9 4 18 4q30 0 42 -28q4 -9 4 -18v-658z" glyph-name="l" horiz-adv-x="243" unicode="l"/>
<glyph d="M756 45q0 -30 -28 -42q-9 -3 -17 -3q-32 0 -43 29q-3 8 -3 17v269q0 179 -40 196q-4 1 -7 1q-87 0 -127 -77q-24 -45 -24 -105v-15v-269q0 -30 -28 -42q-9 -4 -18 -4q-30 0 -42 28q-4 9 -4 18v269q0 183 -45 196q-3 1 -6 1q-90 0 -132 -77q-25 -45 -25 -105v-284 q0 -31 -28 -43q-9 -3 -17 -3q-32 0 -43 29q-3 8 -3 17v429q0 31 29 42q8 3 17 3q30 0 42 -28q3 -9 3 -17v-48q0 -6 9 -4q3 2 4 3q35 83 122 97q14 2 28 2q86 0 119 -94q3 -8 5 -15q3 -6 15 -5q5 1 6 3q29 86 108 106q20 5 41 5q85 0 117 -99q15 -47 15 -111v-270z" glyph-name="m" horiz-adv-x="821" unicode="m"/>
<glyph d="M479 46q0 -30 -28 -43q-9 -3 -18 -4q-30 0 -42 28q-4 9 -4 18v269q0 173 -46 194q-6 3 -11 3q-93 0 -137 -76q-27 -45 -27 -106v-284q0 -31 -28 -43q-9 -3 -17 -3q-32 0 -43 29q-3 8 -3 17v429q0 31 29 42q8 3 17 3q30 0 42 -28q3 -9 3 -17v-48q0 -6 10 -4q3 1 4 2 q36 85 126 99q15 2 30 2q94 0 127 -101q16 -46 16 -109v-269z" glyph-name="n" horiz-adv-x="544" unicode="n"/>
<glyph d="M155 260q0 -212 99 -251q21 -8 44 -8q99 0 130 131q13 55 13 128q0 212 -99 251q-21 8 -44 8q-99 0 -130 -131q-13 -55 -13 -128zM56 260q0 204 146 254q43 15 96 15q178 0 226 -154q16 -51 16 -115q0 -204 -146 -254q-43 -15 -96 -15q-178 0 -226 154q-16 51 -16 115z " glyph-name="o" horiz-adv-x="590" unicode="o"/>
<glyph d="M167 -110q0 -30 -28 -42q-9 -3 -17 -3q-31 0 -43 28q-3 9 -3 17v585q0 31 29 42q8 3 17 3q30 0 42 -28q3 -9 3 -17v-67q0 -7 10 -7q4 2 5 3q46 124 173 125q100 0 154 -96q40 -71 40 -173q0 -151 -80 -225q-49 -44 -114 -44q-128 1 -173 125q-2 6 -12 1q-2 -3 -3 -5v-222 zM167 260q0 -206 122 -248q29 -10 61 -10q54 0 81 97q19 67 19 161q0 171 -54 234q-21 23 -46 24q-130 0 -168 -137q-15 -53 -15 -121z" glyph-name="p" horiz-adv-x="599" unicode="p"/>
<glyph d="M155 260q0 -169 57 -232q23 -25 51 -26q101 0 154 94q38 68 38 164q0 146 -80 216q-48 42 -112 42q-57 0 -87 -93q-21 -68 -21 -165zM56 260q0 149 81 223q51 46 121 46q104 0 160 -96q12 -22 21 -46q2 -5 12 -2q2 3 3 4v86q0 31 29 42q8 3 17 3q30 0 42 -28q3 -9 3 -17 v-585q0 -30 -28 -42q-9 -3 -17 -3q-31 0 -43 28q-3 9 -3 17v241q0 6 -10 4q-4 -1 -5 -2q-38 -107 -128 -134q-26 -8 -53 -8q-105 0 -161 96q-41 71 -41 173z" glyph-name="q" horiz-adv-x="616" unicode="q"/>
<glyph d="M350 511q-1 -5 -5 -6h-6q-171 -2 -172 -265v-194q0 -31 -28 -43q-9 -3 -17 -3q-32 0 -43 29q-3 8 -3 17v429q0 31 29 42q8 3 17 3q30 0 42 -28q3 -9 3 -17v-90q0 -2 2.5 -3t5.5 -0.5t3 2.5q40 135 162 136h5q4 -2 5 -5v-4z" glyph-name="r" horiz-adv-x="370" unicode="r"/>
<glyph d="M55 127l-1 1q0 2 -3 6q-2 4 -3 5l3 2l6 2l3 1q32 -82 119 -119q46 -19 97 -19q75 0 106 63q14 29 14 65q0 52 -80 75q-27 7 -58 10q-142 14 -183 100q-13 28 -13 59q0 83 81 123q50 24 117 24q85 0 152 -75q24 -28 41 -61l3 -6q2 -5 -2 -7q-5 -2 -9 3q-42 89 -120 122 q-32 13 -63 13q-70 0 -98 -63q-13 -29 -13 -65q0 -53 77 -75q24 -7 53 -10q154 -16 196 -103q12 -27 12 -56q0 -82 -85 -121q-53 -25 -126 -25q-110 0 -182 73q-26 26 -41 58z" glyph-name="s" horiz-adv-x="519" unicode="s"/>
<glyph d="M310 520q4 -2 5 -5q-1 -5 -5 -6h-56q-39 0 -55 -35q-6 -13 -6 -26v-306q0 -110 9 -125q6 -6 12 -6h96q4 -2 5 -5q-1 -5 -5 -6h-101q-74 0 -93 33q-14 26 -14 109v321q0 30 -28 42q-9 4 -18 4h-40q-6 0 -6 6q2 4 6 5h40q30 0 42 28q4 9 4 18v61q0 18 17 41l5 5l24 21 q19 16 36 1q9 -10 9 -23v-91q0 -39 35 -55q13 -6 26 -6h56z" glyph-name="t" horiz-adv-x="345" unicode="t"/>
<glyph d="M468 45q0 -30 -28 -42q-9 -3 -17 -3q-30 0 -42 28q-3 9 -3 17v26q0 2 -2.5 3t-5.5 0.5t-3 -2.5q-33 -72 -113 -80q-9 -1 -18 -1q-116 0 -148 82q-17 43 -17 117v285q0 31 29 42q8 3 17 3q30 0 42 -28q3 -9 3 -17v-285q0 -145 41 -175q16 -12 38 -12q83 0 119 68 q17 34 17 77v327q0 31 29 42q8 3 17 3q30 0 42 -28q3 -9 3 -17v-430z" glyph-name="u" horiz-adv-x="538" unicode="u"/>
<glyph d="M124 520q6 -1 8 -4q3 -9 11 -34l4 -12l82 -271q11 -39 50 -45q40 -5 61 30q4 6 6 13l92 274l14 41q3 7 10 8q6 -1 5 -8l-10 -30l-1 -3l-1 -3l-3 -6l-150 -431q-8 -24 -37 -35q-9 -4 -17 -4q-27 0 -47 26q-5 7 -7 13l-150 431l-3 6l-1 3l-1 3l-6 18q-5 14 8 19q4 1 7 1h76 z" glyph-name="v" horiz-adv-x="487" unicode="v"/>
<glyph d="M579 37q-8 -25 -34 -34q-8 -3 -14 -3q-27 1 -43 27q-3 6 -5 11l-60 231q-9 39 -49 45q-38 6 -60 -24q-6 -10 -9 -21l-61 -232q-6 -24 -32 -33q-7 -3 -14 -3q-27 0 -42 25q-4 6 -5 11l-114 435l-6 24q-5 17 11 24q4 1 8 1h48q19 0 27 -18q1 -3 1 -4l5 -23l1 -6l49 -226 q7 -35 43 -42t56 22q5 8 7 17l62 241q6 24 33 35q9 3 17 3q27 0 43 -26q3 -6 5 -12l59 -239q10 -38 48 -44q38 -5 58 25q5 9 8 19l57 227l2 9l9 34q3 6 10 7q5 -2 5 -7l-11 -42z" glyph-name="w" horiz-adv-x="742" unicode="w"/>
<glyph d="M60 6q-2 -3 -11 -7h-8l33 45l122 166q19 25 7 59q-3 8 -6 13l-133 188l-3 4l-16 22q-9 13 3 21q4 2 8 2l79 1q5 -1 8 -4q4 -6 15 -21q12 -18 15 -22l56 -79q26 -37 65 -26q21 7 35 25l56 77q1 2 4 6l28 38q5 6 14 7h8l-33 -45l-94 -127q-18 -26 -6 -59q2 -8 6 -13 l159 -226l3 -4l16 -22q9 -13 -3 -21q-4 -2 -8 -2l-79 -1q-5 1 -8 4q-4 6 -15 21q-12 18 -15 22l-84 118q-26 36 -64 26q-21 -7 -35 -25l-86 -116q-1 -2 -4 -6z" glyph-name="x" horiz-adv-x="511" unicode="x"/>
<glyph d="M247 -58l-2 1q-37 -102 -78 -128q-27 -16 -68 -16h-44q-5 1 -6 6q1 5 6 6h44q58 0 89 42q22 30 46 94l2 6v3.5v5.5v3l-203 506q-11 28 13 43q9 5 20 5h24q20 0 34 -19q2 -3 3 -6l10 -25l90 -225q16 -39 55 -40t57 35q2 4 3 7l81 226l7 22l7 19q5 7 11 8q6 -1 5 -8l-4 -12 l-10 -31l-143 -394z" glyph-name="y" horiz-adv-x="467" unicode="y"/>
<glyph d="M390 129q0 3 3 3h44q3 0 3 -3t-3 -3h-44q-3 0 -3 3zM51 509q-6 0 -6 6q2 4 6 5h369q3 -1 4 -4q-1 -3 -7 -4q-89 -3 -272 -3h-94zM30 4q0 5 2 7l266 466q11 19 40 29q6 2 10 2l22 1q25 1 30 -21q3 -12 -3 -23l-249 -428q-6 -13 -27 -21q-4 -2 -6 -2q-2 -1 1 -2q1 -1 2 -1 h313q7 -1 9 -5q-1 -5 -5 -6h-401q-3 1 -4 4z" glyph-name="z" horiz-adv-x="460" unicode="z"/>
<glyph d="M278 750q19 0 25 -18q1 -5 1 -8q0 -20 -18 -26q-5 -1 -8 -1h-44q-33 0 -43 -39q-2 -11 -2 -22l-1 -229q-1 -60 -34 -83q-5 -3 -2 -12q2 -1 2 -2q34 -24 34 -83q0 -2 1 -229q0 -49 32 -59q7 -2 13 -2h44q19 0 25 -18q1 -5 1 -8q0 -19 -18 -25q-5 -1 -8 -1h-44 q-68 0 -94 58q-11 25 -11 55v241q-2 46 -52 55q-14 3 -21 18q-1 3 -1 6q0 13 17 21q3 1 5 2q51 10 52 55v241q0 74 56 102q22 11 49 11h44z" glyph-name="braceleft" horiz-adv-x="334" unicode="{"/>
<glyph d="M45 770q0 23 22 29q4 1 8 1q23 0 29 -22q1 -4 1 -8v-990q0 -23 -22 -29q-4 -1 -8 -1q-23 0 -29 22q-1 4 -1 8v990z" glyph-name="bar" horiz-adv-x="150" unicode="|"/>
<glyph d="M30 724q0 19 18 25q5 1 8 1l44 1q68 0 94 -58q11 -25 11 -55v-241q2 -46 52 -55q15 -3 21 -18q1 -3 1 -5q0 -14 -17 -22q-3 -1 -5 -2q-51 -10 -52 -55v-241q0 -74 -56 -102q-22 -11 -49 -11h-44q-19 0 -25 18q-1 5 -1 8q0 19 18 25q5 1 8 1h44q33 0 43 39q2 11 2 22 l1 229q1 60 34 83q5 3 2 12q-2 1 -2 2q-34 24 -34 83l-1 227v2q0 49 -32 59q-7 2 -13 2h-44q-19 0 -25 18q-1 5 -1 8z" glyph-name="braceright" horiz-adv-x="334" unicode="}"/>
<glyph d="M91 281q-1 -14 -15 -20q-4 -1 -6 -1h-13q-28 0 -32 25v10q11 82 59 99q3 1 4 1q17 3 20 -15v-9l1 -1q0 6 -0.5 10.5l-1 9t-1.5 6.5v2q38 0 117 -73q3 -2 4 -3q2 -2 3 -1l3 3q13 9 16 44q1 14 15 20q4 1 6 1h14q26 0 30 -24q1 -6 1 -11q-12 -79 -56 -98q-25 -10 -27 18v2 l-2 11l-3 35l7 -71q-21 0 -67 41q-38 34 -54 35q-18 0 -22 -42v-4z" glyph-name="asciitilde" horiz-adv-x="340" unicode="~"/>
<glyph glyph-name="nbspace" horiz-adv-x="220" unicode=" "/>
<glyph d="M49 701q0 32 30 45q10 4 20 4h1q32 0 45 -29q4 -10 4 -20q0 -33 -29 -46q-10 -4 -20 -4h-1q-33 0 -46 30q-4 10 -4 20zM99 0q-34 0 -49 31q-5 11 -5 23v251l1 10l37 220q3 12 16 13q12 -1 15 -13l37 -220l1 -10v-251q0 -34 -30 -49q-12 -5 -23 -5z" glyph-name="exclamdown" horiz-adv-x="197" unicode="¡"/>
<glyph d="M295 564q0 22 22 30q5 2 9 2q20 1 28 -19q2 -6 2 -11v-8q0 -17 20 -36q4 -3 7 -5q66 -32 121 -141q2 -5 -3 -8q-5 -2 -9 3q-52 102 -113 134q-19 10 -23 -12q-1 -4 -1 -8v-449q0 -25 20 -24q6 1 11 3q73 34 107 120q2 3 8 2q5 -4 4 -10q-34 -85 -110 -120q-3 -2 -6 -3 q-16 -6 -29 -30q-5 -8 -5 -14v-5q0 -23 -22 -29q-4 -1 -8 -1q-23 0 -29 22q-1 4 -1 8v3q0 22 -22 34q-5 3 -10 4q-161 24 -197 175q-10 41 -10 89q0 196 150 250q27 9 57 14q21 4 30 26q2 7 2 12v2zM254 20q31 -17 40 13q2 7 2 16v426q0 35 -24 34q-9 0 -18 -5 q-98 -53 -98 -242q1 -190 98 -242z" glyph-name="cent" horiz-adv-x="537" unicode="¢"/>
<glyph d="M373 443q11 17 40 25q7 2 11 2h7q18 0 21 -16q1 -9 -4 -17l-95 -143q-16 -22 -6 -55q3 -8 6 -13l95 -143q11 -17 -3 -29q-7 -4 -14 -4h-7q-21 0 -44 20q-5 4 -7 7l-99 149q-16 22 -6 55q3 8 6 13zM197 443q11 17 40 25q7 2 11 2h7q18 0 22 -16q1 -9 -4 -17l-95 -143 q-16 -22 -6 -55q3 -8 6 -13l95 -143q11 -17 -4 -29q-7 -4 -14 -4h-7q-21 0 -44 20q-5 4 -7 7l-99 149q-16 22 -6 55q3 8 6 13z" glyph-name="guillemotleft" horiz-adv-x="535" unicode="«"/>
<glyph d="M364 114q-2 -6 -7 -7q-6 2 -7 7v82q0 36 -32 54q-14 7 -29 7h-233q-5 1 -6 6q1 5 6 6h247q36 0 54 -32q7 -14 7 -29v-94z" glyph-name="logicalnot" horiz-adv-x="414" unicode="¬"/>
<glyph d="M170 600q-24 0 -29 21q-1 9 2 18l27 71q9 25 39 36q10 4 18 4h18q27 0 33 -23q3 -15 -5 -28l-43 -70q-11 -19 -41 -27q-6 -2 -11 -2h-8z" glyph-name="acute" horiz-adv-x="340" unicode="´"/>
<glyph d="M100 210q-33 0 -46 30q-4 10 -4 20v1q0 32 30 45q10 4 20 4q32 0 45 -29q4 -10 4 -20v-1q0 -33 -29 -46q-10 -4 -20 -4z" glyph-name="periodcentered" horiz-adv-x="199" unicode="·"/>
<glyph d="M265 437q-11 17 4 29q7 4 14 4h7q21 0 44 -20q5 -4 7 -7l99 -149q16 -22 6 -55q-3 -8 -6 -13l-99 -149q-11 -17 -40 -25q-7 -2 -11 -2h-7q-18 0 -22 16q-1 9 4 17l95 143q16 22 6 55q-3 8 -6 13zM89 437q-11 17 4 29q7 4 14 4h7q21 0 44 -20q5 -4 7 -7l99 -149 q16 -22 6 -55q-3 -8 -6 -13l-99 -149q-11 -17 -40 -25q-7 -2 -11 -2h-7q-18 0 -22 16q-1 9 4 17l95 143q16 22 6 55q-3 8 -6 13z" glyph-name="guillemotright" horiz-adv-x="517" unicode="»"/>
<glyph d="M242 750q32 0 45 -29q4 -10 4 -20q0 -33 -29 -46q-10 -4 -20 -4h-1q-33 0 -46 30q-4 10 -4 20q0 32 30 45q10 4 20 4h1zM450 199q48 -10 36 -51q-29 -95 -131 -136q-55 -21 -120 -21q-130 0 -195 82q-40 52 -40 122q0 99 65 152q21 16 49 31q55 28 70 62q11 25 13 65 q1 27 27 39q10 4 18 4q31 0 40 -26q2 -7 2 -14q-3 -97 -34 -136q-23 -27 -73 -54q-70 -37 -80 -94q-2 -14 -2 -29q0 -81 66 -116q33 -17 74 -17q98 0 144 69q11 16 17 33q8 20 34 31q11 5 19 4h1z" glyph-name="questiondown" horiz-adv-x="550" unicode="¿"/>
<glyph d="M383 830q-22 0 -45 20q-5 5 -7 9l-43 70q-15 25 4 42q10 9 24 9h18q27 0 49 -26q5 -8 8 -14l27 -71q9 -23 -11 -35q-8 -4 -16 -4h-8zM313 700h1l9 25l5 13q6 11 18 12h56q28 0 50 -27q5 -6 7 -12l259 -660q11 -29 -12 -44q-10 -7 -22 -7h-42q-12 1 -18 13l-5 12l-6 17 l-66 167q-10 25 -40 36q-10 3 -17 3h-295q-28 0 -50 -27q-5 -6 -7 -12l-66 -167l-6 -17l-7 -18q-5 -6 -11 -7q-6 1 -5 7zM191 344q-16 -41 14 -68q18 -16 43 -16h190q42 0 57 35q10 24 0 49l-95 245q-15 40 -54.5 41.5t-57.5 -35.5q-1 -4 -2 -6z" glyph-name="Agrave" horiz-adv-x="748" unicode="À"/>
<glyph d="M391 830q-24 0 -29 21q-1 9 2 18l27 71q9 25 39 36q10 4 18 4h18q27 0 33 -23q3 -15 -5 -28l-43 -70q-11 -19 -41 -27q-6 -2 -11 -2h-8zM313 700h1l9 25l5 13q6 11 18 12h56q28 0 50 -27q5 -6 7 -12l259 -660q11 -29 -12 -44q-10 -7 -22 -7h-42q-12 1 -18 13l-5 12l-6 17 l-66 167q-10 25 -40 36q-10 3 -17 3h-295q-28 0 -50 -27q-5 -6 -7 -12l-66 -167l-6 -17l-7 -18q-5 -6 -11 -7q-6 1 -5 7zM191 344q-16 -41 14 -68q18 -16 43 -16h190q42 0 57 35q10 24 0 49l-95 245q-15 40 -54.5 41.5t-57.5 -35.5q-1 -4 -2 -6z" glyph-name="Aacute" horiz-adv-x="748" unicode="Á"/>
<glyph d="M402 906q-10 4 -18 -3q-2 -3 -3 -3l-59 -54q-17 -12 -42 -16h-17q-18 0 -21 16q0 9 5 16l80 96q10 13 39 21q5 1 8 1h34q19 0 42 -17l5 -5l80 -96q12 -16 -2 -27q-6 -5 -13 -5h-12h-3h-4h-3h-3h-3h-4h-3h-7l-40 46q-22 22 -36 30zM313 700h1l9 25l5 13q6 11 18 12h56 q28 0 50 -27q5 -6 7 -12l259 -660q11 -29 -12 -44q-10 -7 -22 -7h-42q-12 1 -18 13l-5 12l-6 17l-66 167q-10 25 -40 36q-10 3 -17 3h-295q-28 0 -50 -27q-5 -6 -7 -12l-66 -167l-6 -17l-7 -18q-5 -6 -11 -7q-6 1 -5 7zM191 344q-16 -41 14 -68q18 -16 43 -16h190 q42 0 57 35q10 24 0 49l-95 245q-15 40 -54.5 41.5t-57.5 -35.5q-1 -4 -2 -6z" glyph-name="Acircumflex" horiz-adv-x="748" unicode="Â"/>
<glyph d="M312 851q-1 -14 -15 -20q-4 -1 -6 -1h-13q-28 0 -32 25v10q11 82 59 99q3 1 4 1q17 3 20 -15v-9l1 -1q0 6 -0.5 10.5l-1 9t-0.5 6.5l-1 2q38 0 117 -73q3 -2 4 -3q2 -2 3 -1l3 3q13 9 16 44q1 14 15 20q4 1 6 1h14q26 0 30 -24q1 -6 1 -11q-12 -79 -56 -98 q-25 -10 -27 18v2l-2 11l-3 35l7 -71q-21 0 -67 41q-38 34 -54 35q-18 0 -22 -42v-4zM313 700h1l9 25l5 13q6 11 18 12h56q28 0 50 -27q5 -6 7 -12l259 -660q11 -29 -12 -44q-10 -7 -22 -7h-42q-12 1 -18 13l-5 12l-6 17l-66 167q-10 25 -40 36q-10 3 -17 3h-295 q-28 0 -50 -27q-5 -6 -7 -12l-66 -167l-6 -17l-7 -18q-5 -6 -11 -7q-6 1 -5 7zM191 344q-16 -41 14 -68q18 -16 43 -16h190q42 0 57 35q10 24 0 49l-95 245q-15 40 -54.5 41.5t-57.5 -35.5q-1 -4 -2 -6z" glyph-name="Atilde" horiz-adv-x="748" unicode="Ã"/>
<glyph d="M467 830q-33 0 -46 30q-4 10 -4 20q0 32 30 45q10 4 20 4h1q32 0 45 -29q4 -10 4 -20q0 -33 -29 -46q-10 -4 -20 -4h-1zM315 830q-33 0 -46 30q-4 10 -4 20q0 32 30 45q10 4 20 4h1q32 0 45 -29q4 -10 4 -20q0 -33 -29 -46q-10 -4 -20 -4h-1zM313 700h1l9 25l5 13 q6 11 18 12h56q28 0 50 -27q5 -6 7 -12l259 -660q11 -29 -12 -44q-10 -7 -22 -7h-42q-12 1 -18 13l-5 12l-6 17l-66 167q-10 25 -40 36q-10 3 -17 3h-295q-28 0 -50 -27q-5 -6 -7 -12l-66 -167l-6 -17l-7 -18q-5 -6 -11 -7q-6 1 -5 7zM191 344q-16 -41 14 -68q18 -16 43 -16 h190q42 0 57 35q10 24 0 49l-95 245q-15 40 -54.5 41.5t-57.5 -35.5q-1 -4 -2 -6z" glyph-name="Adieresis" horiz-adv-x="748" unicode="Ä"/>
<glyph d="M353 915q2 -42 38 -43q37 2 38 43q-5 39 -38 42q-35 -5 -38 -42zM307 915q0 68 59 81q12 3 25 3q68 0 81 -59q3 -12 3 -25q-2 -84 -84 -85q-83 2 -84 85zM313 700h1l9 25l5 13q6 11 18 12h56q28 0 50 -27q5 -6 7 -12l259 -660q11 -29 -12 -44q-10 -7 -22 -7h-42 q-12 1 -18 13l-5 12l-6 17l-66 167q-10 25 -40 36q-10 3 -17 3h-295q-28 0 -50 -27q-5 -6 -7 -12l-66 -167l-6 -17l-7 -18q-5 -6 -11 -7q-6 1 -5 7zM191 344q-16 -41 14 -68q18 -16 43 -16h190q42 0 57 35q10 24 0 49l-95 245q-15 40 -54.5 41.5t-57.5 -35.5q-1 -4 -2 -6z " glyph-name="Aring" horiz-adv-x="748" unicode="Å"/>
<glyph d="M666 172q5 6 10 4q4 -5 1 -13q-47 -101 -146 -146q-55 -26 -112 -26q-14 0 -39 2q-9 -1 -12 -6l-41 -93q-2 -1 -4 2v1l1 2l21 46q11 25 -12 48q-10 10 -20 13q-132 40 -203 166q-51 93 -51 203q0 157 96 266q106 116 264 118q99 0 190 -87q39 -38 67 -85q4 -7 0 -12 q-5 -4 -11 3q-63 106 -160 149q-45 20 -86 20q-112 0 -184 -114q-67 -107 -67 -258q0 -168 79 -276q71 -95 172 -96q104 0 185 81q39 39 62 88zM331 -102l-1 -1q13 17 37 18q64 0 84 -37q5 -11 5 -22q0 -65 -50 -88q-19 -8 -40 -8q-40 0 -46 39q-2 12 0 26q0 1 2 3l2 2 q2 0 3 -2q4 -22 37 -24q31 0 38 35q2 9 2 17q0 43 -29 51q-5 1 -9 1q-23 -1 -35 -10z" glyph-name="Ccedilla" horiz-adv-x="701" unicode="Ç"/>
<glyph d="M317 830q-22 0 -45 20q-5 5 -7 9l-44 70q-14 25 5 42q10 9 24 9h17q27 0 49 -26q5 -8 8 -14l27 -71q9 -23 -10 -35q-8 -4 -16 -4h-8zM564 12q5 -1 6 -6q-1 -5 -6 -6h-409q-36 0 -54 32q-7 14 -7 29v628q0 36 32 54q14 7 29 7h394q5 -1 6 -6q-1 -5 -6 -6h-293 q-36 0 -54 -32q-7 -14 -7 -29v-223q0 -36 32 -54q14 -7 29 -7h273q5 -1 6 -6q-1 -5 -6 -6h-273q-36 0 -54 -32q-7 -14 -7 -29v-247q0 -36 32 -54q14 -7 29 -7h308z" glyph-name="Egrave" horiz-adv-x="620" unicode="È"/>
<glyph d="M325 830q-24 0 -29 21q-1 9 2 18l27 71q9 25 39 36q10 4 18 4h18q26 0 32 -23q3 -15 -4 -28l-44 -70q-11 -19 -41 -27q-6 -2 -11 -2h-7zM564 12q5 -1 6 -6q-1 -5 -6 -6h-409q-36 0 -54 32q-7 14 -7 29v628q0 36 32 54q14 7 29 7h394q5 -1 6 -6q-1 -5 -6 -6h-293 q-36 0 -54 -32q-7 -14 -7 -29v-223q0 -36 32 -54q14 -7 29 -7h273q5 -1 6 -6q-1 -5 -6 -6h-273q-36 0 -54 -32q-7 -14 -7 -29v-247q0 -36 32 -54q14 -7 29 -7h308z" glyph-name="Eacute" horiz-adv-x="620" unicode="É"/>
<glyph d="M336 906q-10 4 -18 -3q-2 -3 -3 -3l-59 -54q-17 -12 -42 -16h-17q-18 0 -21 16q0 9 5 16l79 96q10 13 39 21q5 1 8 1h35q19 0 42 -17l5 -5l79 -96q13 -14 0 -26q-7 -6 -15 -6h-12h-3h-3h-4h-3h-3h-3h-3h-8l-39 46q-22 22 -36 30zM564 12q5 -1 6 -6q-1 -5 -6 -6h-409 q-36 0 -54 32q-7 14 -7 29v628q0 36 32 54q14 7 29 7h394q5 -1 6 -6q-1 -5 -6 -6h-293q-36 0 -54 -32q-7 -14 -7 -29v-223q0 -36 32 -54q14 -7 29 -7h273q5 -1 6 -6q-1 -5 -6 -6h-273q-36 0 -54 -32q-7 -14 -7 -29v-247q0 -36 32 -54q14 -7 29 -7h308z" glyph-name="Ecircumflex" horiz-adv-x="620" unicode="Ê"/>
<glyph d="M401 830q-33 0 -46 30q-4 10 -4 20q0 32 30 45q10 4 20 4q32 0 45 -29q4 -10 4 -20q0 -33 -29 -46q-10 -4 -20 -4zM249 830q-33 0 -46 30q-4 10 -4 20q0 32 30 45q10 4 20 4q32 0 45 -29q4 -10 4 -20q0 -33 -29 -46q-10 -4 -20 -4zM564 12q5 -1 6 -6q-1 -5 -6 -6h-409 q-36 0 -54 32q-7 14 -7 29v628q0 36 32 54q14 7 29 7h394q5 -1 6 -6q-1 -5 -6 -6h-293q-36 0 -54 -32q-7 -14 -7 -29v-223q0 -36 32 -54q14 -7 29 -7h273q5 -1 6 -6q-1 -5 -6 -6h-273q-36 0 -54 -32q-7 -14 -7 -29v-247q0 -36 32 -54q14 -7 29 -7h308z" glyph-name="Edieresis" horiz-adv-x="620" unicode="Ë"/>
<glyph d="M130 830q-22 0 -45 20q-5 5 -7 9l-43 70q-15 25 4 42q10 9 24 9h18q27 0 49 -26q5 -8 8 -14l27 -71q9 -23 -11 -35q-8 -4 -16 -4h-8zM189 51q0 -32 -29 -46q-11 -5 -22 -5q-32 0 -46 29q-5 11 -5 22v648q0 32 29 46q11 5 22 5q32 0 46 -29q5 -11 5 -22v-648z" glyph-name="Igrave" horiz-adv-x="274" unicode="Ì"/>
<glyph d="M138 830q-24 0 -29 21q-1 9 2 18l27 71q9 25 39 36q10 4 18 4h18q27 0 33 -23q3 -15 -5 -28l-43 -70q-11 -19 -41 -27q-6 -2 -11 -2h-8zM189 51q0 -32 -29 -46q-11 -5 -22 -5q-32 0 -46 29q-5 11 -5 22v648q0 32 29 46q11 5 22 5q32 0 46 -29q5 -11 5 -22v-648z" glyph-name="Iacute" horiz-adv-x="274" unicode="Í"/>
<glyph d="M149 906q-10 4 -18 -3q-2 -3 -3 -3l-59 -54q-17 -12 -42 -16h-17q-18 0 -21 16q0 9 5 16l80 96q10 13 39 21q5 1 8 1h34q19 0 42 -17l5 -5l80 -96q12 -16 -2 -27q-6 -5 -13 -5h-12h-3h-4h-3h-3h-3h-4h-3h-7l-40 46q-22 22 -36 30zM189 51q0 -32 -29 -46q-11 -5 -22 -5 q-32 0 -46 29q-5 11 -5 22v648q0 32 29 46q11 5 22 5q32 0 46 -29q5 -11 5 -22v-648z" glyph-name="Icircumflex" horiz-adv-x="274" unicode="Î"/>
<glyph d="M214 830q-33 0 -46 30q-4 10 -4 20q0 32 30 45q10 4 20 4h1q32 0 45 -29q4 -10 4 -20q0 -33 -29 -46q-10 -4 -20 -4h-1zM62 830q-33 0 -46 30q-4 10 -4 20q0 32 30 45q10 4 20 4h1q32 0 45 -29q4 -10 4 -20q0 -33 -29 -46q-10 -4 -20 -4h-1zM189 51q0 -32 -29 -46 q-11 -5 -22 -5q-32 0 -46 29q-5 11 -5 22v648q0 32 29 46q11 5 22 5q32 0 46 -29q5 -11 5 -22v-648z" glyph-name="Idieresis" horiz-adv-x="274" unicode="Ï"/>
<glyph d="M268 851q-1 -14 -15 -20q-4 -1 -6 -1h-14q-27 0 -32 23q-1 6 0 12q10 79 57 98q4 1 7 2q17 3 20 -15v-9l1 -1q0 6 -0.5 10.5l-1 9t-0.5 6.5l-1 2q38 0 117 -73q3 -2 4 -3q2 -2 3 -1l3 3q13 9 16 44q1 14 15 20q4 1 6 1h14q26 0 30 -24q1 -6 1 -11q-12 -79 -56 -98 q-25 -10 -27 18v2l-2 11l-3 35l7 -71q-22 0 -67 41q-40 34 -55 35q-17 -2 -21 -46zM130 8q-1 -7 -7 -8q-7 2 -8 8v686q0 35 32 51q12 5 25 5h16q26 0 48 -25q5 -6 8 -11l202 -442q18 -38 60 -34q38 3 52 36q5 12 5 24v445q2 6 8 7q6 -2 7 -7v-682q0 -39 -34 -55 q-13 -6 -26 -6h-21q-26 0 -48 25q-5 6 -8 11l-194 424q-18 38 -60 35q-38 -3 -52 -37q-5 -12 -5 -24v-426z" glyph-name="Ntilde" horiz-adv-x="663" unicode="Ñ"/>
<glyph d="M404 830q-22 0 -45 20q-5 5 -7 9l-43 70q-15 25 4 42q10 9 24 9h18q27 0 49 -26q5 -8 8 -14l27 -71q9 -23 -11 -35q-8 -4 -16 -4h-8zM173 375q0 -200 91 -302q62 -70 148 -70q116 0 182 118q56 101 56 254q0 177 -82 285q-66 86 -156 87q-101 0 -170 -105 q-69 -108 -69 -267zM64 375q0 166 102 276q100 108 246 108q147 0 246 -108q101 -111 101 -276q0 -189 -112 -295q-94 -89 -235 -89q-167 0 -263 119q-85 104 -85 265z" glyph-name="Ograve" unicode="Ò"/>
<glyph d="M412 830q-24 0 -29 21q-1 9 2 18l27 71q9 25 39 36q10 4 18 4h18q27 0 33 -23q3 -15 -5 -28l-43 -70q-11 -19 -41 -27q-6 -2 -11 -2h-8zM173 375q0 -200 91 -302q62 -70 148 -70q116 0 182 118q56 101 56 254q0 177 -82 285q-66 86 -156 87q-101 0 -170 -105 q-69 -108 -69 -267zM64 375q0 166 102 276q100 108 246 108q147 0 246 -108q101 -111 101 -276q0 -189 -112 -295q-94 -89 -235 -89q-167 0 -263 119q-85 104 -85 265z" glyph-name="Oacute" unicode="Ó"/>
<glyph d="M423 906q-10 4 -18 -3q-2 -3 -3 -3l-59 -54q-17 -12 -42 -16h-17q-18 0 -21 16q0 9 5 16l80 96q10 13 39 21q5 1 8 1h34q19 0 42 -17l5 -5l80 -96q12 -16 -2 -27q-6 -5 -13 -5h-12h-3h-4h-3h-3h-3h-4h-3h-7l-40 46q-22 22 -36 30zM173 375q0 -200 91 -302q62 -70 148 -70 q116 0 182 118q56 101 56 254q0 177 -82 285q-66 86 -156 87q-101 0 -170 -105q-69 -108 -69 -267zM64 375q0 166 102 276q100 108 246 108q147 0 246 -108q101 -111 101 -276q0 -189 -112 -295q-94 -89 -235 -89q-167 0 -263 119q-85 104 -85 265z" glyph-name="Ocircumflex" unicode="Ô"/>
<glyph d="M333 851q-1 -14 -15 -20q-4 -1 -6 -1h-13q-28 0 -32 25v10q11 82 59 99q3 1 4 1q17 3 20 -15v-9l1 -1q0 6 -0.5 10.5l-1 9t-1.5 6.5v2q38 0 117 -73q3 -2 4 -3q2 -2 3 -1l3 3q13 9 16 44q1 14 15 20q4 1 6 1h14q26 0 30 -24q1 -6 1 -11q-12 -79 -56 -98q-25 -10 -27 18v2 l-2 11l-3 35l7 -71q-21 0 -67 41q-38 34 -54 35q-18 0 -22 -42v-4zM173 375q0 -200 91 -302q62 -70 148 -70q116 0 182 118q56 101 56 254q0 177 -82 285q-66 86 -156 87q-101 0 -170 -105q-69 -108 -69 -267zM64 375q0 166 102 276q100 108 246 108q147 0 246 -108 q101 -111 101 -276q0 -189 -112 -295q-94 -89 -235 -89q-167 0 -263 119q-85 104 -85 265z" glyph-name="Otilde" unicode="Õ"/>
<glyph d="M488 830q-33 0 -46 30q-4 10 -4 20q0 32 30 45q10 4 20 4h1q32 0 45 -29q4 -10 4 -20q0 -33 -29 -46q-10 -4 -20 -4h-1zM336 830q-33 0 -46 30q-4 10 -4 20q0 32 30 45q10 4 20 4h1q32 0 45 -29q4 -10 4 -20q0 -33 -29 -46q-10 -4 -20 -4h-1zM173 375q0 -200 91 -302 q62 -70 148 -70q116 0 182 118q56 101 56 254q0 177 -82 285q-66 86 -156 87q-101 0 -170 -105q-69 -108 -69 -267zM64 375q0 166 102 276q100 108 246 108q147 0 246 -108q101 -111 101 -276q0 -189 -112 -295q-94 -89 -235 -89q-167 0 -263 119q-85 104 -85 265z" glyph-name="Odieresis" unicode="Ö"/>
<glyph d="M64 375v1q0 166 101 276q100 109 246 109q104 -1 188 -58q20 -14 45 -4q8 4 12 8l26 31q13 15 39 21q5 1 8 1q12 0 14 -11q-1 -7 -4 -11l-48 -58q-16 -19 -6 -57q2 -10 6 -16q67 -101 67 -231q0 -189 -112 -295q-94 -89 -235 -89q-111 1 -193 54q-19 14 -44 4 q-9 -4 -13 -9l-23 -27q-11 -14 -39 -21q-4 -1 -7 -1q-14 0 -14 13q0 5 3 9l46 54q16 18 6 56q-2 10 -6 16q-63 96 -63 235zM563 594q26 33 6 65q-2 3 -3 5q-66 84 -155 85q-101 0 -170 -105q-69 -108 -69 -267q0 -99 25 -178q6 -18 21 -14q6 2 10 6zM623 553q-6 18 -21 15 q-7 -2 -11 -7l-335 -405q-26 -31 -6 -63q2 -3 3 -5q63 -81 158 -82q116 0 182 118q56 101 56 254q0 92 -26 175z" glyph-name="Oslash" unicode="Ø"/>
<glyph d="M337 821q-22 0 -45 20q-5 5 -7 9l-43 70q-15 25 4 42q10 9 24 9h18q27 0 49 -26q5 -8 8 -14l27 -71q9 -23 -11 -35q-8 -4 -16 -4h-8zM588 743q2 6 8 7q6 -2 7 -7v-449q0 -276 -216 -301q-21 -2 -42 -2q-228 0 -255 236q-3 31 -3 64v409q0 31 29 45q11 5 22 5q31 0 45 -29 q5 -10 5 -21v-392q1 -302 157 -303q217 0 240 235q3 28 3 57v446z" glyph-name="Ugrave" horiz-adv-x="683" unicode="Ù"/>
<glyph d="M345 821q-24 0 -29 21q-1 9 2 18l27 71q9 25 39 36q10 4 18 4h18q27 0 33 -23q3 -15 -5 -28l-43 -70q-11 -19 -41 -27q-6 -2 -11 -2h-8zM588 743q2 6 8 7q6 -2 7 -7v-449q0 -276 -216 -301q-21 -2 -42 -2q-228 0 -255 236q-3 31 -3 64v409q0 31 29 45q11 5 22 5 q31 0 45 -29q5 -10 5 -21v-392q1 -302 157 -303q217 0 240 235q3 28 3 57v446z" glyph-name="Uacute" horiz-adv-x="683" unicode="Ú"/>
<glyph d="M356 897q-10 4 -18 -3q-2 -3 -3 -3l-59 -54q-17 -12 -42 -16h-17q-18 0 -21 16q0 9 5 16l80 96q10 13 39 21q5 1 8 1h34q19 0 42 -17l5 -5l80 -96q12 -16 -2 -27q-6 -5 -13 -5h-12h-3h-4h-3h-3h-3h-4h-3h-7l-40 46q-22 22 -36 30zM588 743q2 6 8 7q6 -2 7 -7v-449 q0 -276 -216 -301q-21 -2 -42 -2q-228 0 -255 236q-3 31 -3 64v409q0 31 29 45q11 5 22 5q31 0 45 -29q5 -10 5 -21v-392q1 -302 157 -303q217 0 240 235q3 28 3 57v446z" glyph-name="Ucircumflex" horiz-adv-x="683" unicode="Û"/>
<glyph d="M421 821q-33 0 -46 30q-4 10 -4 20q0 32 30 45q10 4 20 4h1q32 0 45 -29q4 -10 4 -20q0 -33 -29 -46q-10 -4 -20 -4h-1zM269 821q-33 0 -46 30q-4 10 -4 20q0 32 30 45q10 4 20 4h1q32 0 45 -29q4 -10 4 -20q0 -33 -29 -46q-10 -4 -20 -4h-1zM588 743q2 6 8 7q6 -2 7 -7 v-449q0 -276 -216 -301q-21 -2 -42 -2q-228 0 -255 236q-3 31 -3 64v409q0 31 29 45q11 5 22 5q31 0 45 -29q5 -10 5 -21v-392q1 -302 157 -303q217 0 240 235q3 28 3 57v446z" glyph-name="Udieresis" horiz-adv-x="683" unicode="Ü"/>
<glyph d="M306 830q-24 0 -29 21q-1 9 2 18l27 71q9 25 39 36q10 4 18 4h18q27 0 33 -23q3 -15 -5 -28l-43 -70q-11 -19 -41 -27q-6 -2 -11 -2h-8zM569 743q5 6 12 7l2 -1h6q-1 -2 -14 -25q-33 -57 -98 -172q-66 -114 -98 -171q-6 -8 -11 -34v-297q0 -32 -29 -46q-11 -5 -22 -5 q-32 0 -46 29q-5 11 -5 22v263q0 13 -6 27q-43 75 -130 225q-55 96 -82 143q-14 22 6 36q9 6 21 6h22q21 0 40 -19q2 -4 4 -6l14 -25l185 -324q3 -5 10 -6q7 1 10 6z" glyph-name="Yacute" horiz-adv-x="599" unicode="Ý"/>
<glyph d="M195 51q0 -32 -29 -46q-11 -5 -21 -5q-32 0 -46 29q-5 11 -5 22v649q0 31 29 45q11 5 22 5q31 0 45 -29q5 -10 5 -21v-39q0 -36 32 -54q14 -7 29 -7h97q235 -2 236 -225q0 -208 -203 -224q-17 -1 -33 -1h-97q-36 0 -54 -32q-7 -14 -7 -29v-38zM195 223q0 -36 32 -54 q14 -7 29 -7h98q133 2 134 213q-1 212 -136 213h-96q-36 0 -54 -32q-7 -14 -7 -29v-304z" glyph-name="Thorn" horiz-adv-x="624" unicode="Þ"/>
<glyph d="M269 600q-22 0 -45 20q-5 5 -7 9l-43 70q-15 25 4 42q10 9 24 9h18q27 0 49 -26q5 -8 8 -14l27 -71q9 -23 -11 -35q-8 -4 -16 -4h-8zM84 381q-5 3 -4 9q31 85 113 121q40 18 84 18q197 -2 198 -185v-257q0 -16 9 -18q6 -2 15 -2q15 0 20 -15q1 -3 1 -6v-12q0 -24 -24 -32 q-6 -2 -12 -2q-72 1 -88 17q-12 15 -12 70v20q-1 1 -5 -3q-26 -108 -142 -113h-12q-178 1 -179 103q0 86 77 126q44 22 101 22q124 0 151 80q9 26 9 61q-1 134 -107 135q-91 0 -150 -72q-23 -28 -35 -61q-3 -4 -8 -4zM384 287q0 5 -8 6q-4 -1 -5 -3q-36 -57 -139 -57 q-59 0 -83 -65q-12 -31 -12 -71q2 -96 93 -97q115 0 144 100q8 27 10 62v125z" glyph-name="agrave" horiz-adv-x="550" unicode="à"/>
<glyph d="M277 600q-24 0 -29 21q-1 9 2 18l27 71q9 25 39 36q10 4 18 4h18q27 0 33 -23q3 -15 -5 -28l-43 -70q-11 -19 -41 -27q-6 -2 -11 -2h-8zM84 381q-5 3 -4 9q31 85 113 121q40 18 84 18q197 -2 198 -185v-257q0 -16 9 -18q6 -2 15 -2q15 0 20 -15q1 -3 1 -6v-12 q0 -24 -24 -32q-6 -2 -12 -2q-72 1 -88 17q-12 15 -12 70v20q-1 1 -5 -3q-26 -108 -142 -113h-12q-178 1 -179 103q0 86 77 126q44 22 101 22q124 0 151 80q9 26 9 61q-1 134 -107 135q-91 0 -150 -72q-23 -28 -35 -61q-3 -4 -8 -4zM384 287q0 5 -8 6q-4 -1 -5 -3 q-36 -57 -139 -57q-59 0 -83 -65q-12 -31 -12 -71q2 -96 93 -97q115 0 144 100q8 27 10 62v125z" glyph-name="aacute" horiz-adv-x="550" unicode="á"/>
<glyph d="M288 676q-10 4 -18 -3q-2 -3 -3 -3l-59 -54q-17 -12 -42 -16h-17q-18 0 -21 16q0 9 5 16l80 96q10 13 39 21q5 1 8 1h34q19 0 42 -17l5 -5l80 -96q12 -16 -2 -27q-6 -5 -13 -5h-12h-3h-4h-3h-3h-3h-4h-3h-7l-40 46q-22 22 -36 30zM84 381q-5 3 -4 9q31 85 113 121 q40 18 84 18q197 -2 198 -185v-257q0 -16 9 -18q6 -2 15 -2q15 0 20 -15q1 -3 1 -6v-12q0 -24 -24 -32q-6 -2 -12 -2q-72 1 -88 17q-12 15 -12 70v20q-1 1 -5 -3q-26 -108 -142 -113h-12q-178 1 -179 103q0 86 77 126q44 22 101 22q124 0 151 80q9 26 9 61q-1 134 -107 135 q-91 0 -150 -72q-23 -28 -35 -61q-3 -4 -8 -4zM384 287q0 5 -8 6q-4 -1 -5 -3q-36 -57 -139 -57q-59 0 -83 -65q-12 -31 -12 -71q2 -96 93 -97q115 0 144 100q8 27 10 62v125z" glyph-name="acircumflex" horiz-adv-x="550" unicode="â"/>
<glyph d="M198 621q-1 -14 -15 -20q-4 -1 -6 -1h-13q-28 0 -32 25v10q11 82 59 99q3 1 4 1q17 3 20 -15v-9l1 -1q0 6 -0.5 10.5l-1 9t-0.5 6.5l-1 2q38 0 117 -73q3 -2 4 -3q2 -2 3 -1l3 3q13 9 16 44q1 14 15 20q4 1 6 1h14q26 0 30 -24q1 -6 1 -11q-12 -79 -56 -98 q-25 -10 -27 18v2l-2 11l-3 35l7 -71q-21 0 -67 41q-38 34 -54 35q-18 0 -22 -42v-4zM84 381q-5 3 -4 9q31 85 113 121q40 18 84 18q197 -2 198 -185v-257q0 -16 9 -18q6 -2 15 -2q15 0 20 -15q1 -3 1 -6v-12q0 -24 -24 -32q-6 -2 -12 -2q-72 1 -88 17q-12 15 -12 70v20 q-1 1 -5 -3q-26 -108 -142 -113h-12q-178 1 -179 103q0 86 77 126q44 22 101 22q124 0 151 80q9 26 9 61q-1 134 -107 135q-91 0 -150 -72q-23 -28 -35 -61q-3 -4 -8 -4zM384 287q0 5 -8 6q-4 -1 -5 -3q-36 -57 -139 -57q-59 0 -83 -65q-12 -31 -12 -71q2 -96 93 -97 q115 0 144 100q8 27 10 62v125z" glyph-name="atilde" horiz-adv-x="550" unicode="ã"/>
<glyph d="M375 600q-33 0 -46 30q-4 10 -4 20q0 32 30 45q10 4 20 4q32 0 45 -29q4 -10 4 -20q0 -33 -29 -46q-10 -4 -20 -4zM180 600q-33 0 -46 30q-4 10 -4 20q0 32 30 45q10 4 20 4h1q32 0 45 -29q4 -10 4 -20q0 -33 -29 -46q-10 -4 -20 -4h-1zM84 381q-5 3 -4 9q31 85 113 121 q40 18 84 18q197 -2 198 -185v-257q0 -16 9 -18q6 -2 15 -2q15 0 20 -15q1 -3 1 -6v-12q0 -24 -24 -32q-6 -2 -12 -2q-72 1 -88 17q-12 15 -12 70v20q-1 1 -5 -3q-26 -108 -142 -113h-12q-178 1 -179 103q0 86 77 126q44 22 101 22q124 0 151 80q9 26 9 61q-1 134 -107 135 q-91 0 -150 -72q-23 -28 -35 -61q-3 -4 -8 -4zM384 287q0 5 -8 6q-4 -1 -5 -3q-36 -57 -139 -57q-59 0 -83 -65q-12 -31 -12 -71q2 -96 93 -97q115 0 144 100q8 27 10 62v125z" glyph-name="adieresis" horiz-adv-x="550" unicode="ä"/>
<glyph d="M239 685q2 -42 38 -43q37 2 38 43q-5 39 -38 42q-35 -5 -38 -42zM193 685q0 68 59 81q12 3 25 3q68 0 81 -59q3 -12 3 -25q-2 -84 -84 -85q-83 2 -84 85zM84 381q-5 3 -4 9q31 85 113 121q40 18 84 18q197 -2 198 -185v-257q0 -16 9 -18q6 -2 15 -2q15 0 20 -15 q1 -3 1 -6v-12q0 -24 -24 -32q-6 -2 -12 -2q-72 1 -88 17q-12 15 -12 70v20q-1 1 -5 -3q-26 -108 -142 -113h-12q-178 1 -179 103q0 86 77 126q44 22 101 22q124 0 151 80q9 26 9 61q-1 134 -107 135q-91 0 -150 -72q-23 -28 -35 -61q-3 -4 -8 -4zM384 287q0 5 -8 6 q-4 -1 -5 -3q-36 -57 -139 -57q-59 0 -83 -65q-12 -31 -12 -71q2 -96 93 -97q115 0 144 100q8 27 10 62v125z" glyph-name="aring" horiz-adv-x="550" unicode="å"/>
<glyph d="M493 134q3 4 8 3q5 -4 4 -10q-35 -87 -112 -121q-33 -15 -68 -15q-12 0 -35 2q-6 -1 -10 -6l-41 -93q-2 -1 -4 2v1l1 2l21 46q12 27 -10 48q-8 7 -17 10q-149 39 -171 204q-3 26 -3 53q0 199 155 252q51 17 114 17q101 -1 179 -153q1 -6 -3 -9q-5 -2 -9 4 q-76 146 -167 147q-120 0 -156 -136q-14 -53 -14 -122q0 -208 116 -249q25 -9 54 -9q78 0 133 71q22 28 35 61zM243 -102l-1 -1q13 17 37 18q64 0 84 -37q5 -11 5 -22q0 -65 -50 -88q-19 -8 -40 -8q-40 0 -46 39q-2 12 0 26q0 1 2 3l2 2q2 0 3 -2q4 -22 37 -24q31 0 38 35 q2 9 2 17q0 43 -29 51q-5 1 -9 1q-23 -1 -35 -10z" glyph-name="ccedilla" horiz-adv-x="537" unicode="ç"/>
<glyph d="M283 600q-22 0 -45 20q-5 5 -7 9l-43 70q-15 25 4 42q10 9 24 9h18q27 0 49 -26q5 -8 8 -14l27 -71q9 -23 -11 -35q-8 -4 -16 -4h-8zM498 133q3 5 9 4q5 -4 4 -9q-25 -81 -116 -117q-51 -20 -110 -20q-159 0 -209 138q-20 57 -20 131q0 206 144 255q41 14 91 14 q207 -2 232 -219q5 -45 -36 -57q-11 -3 -22 -3h-248q-46 0 -57 -37q-3 -11 -2 -23q16 -171 109 -187q9 -1 18 -1q112 0 176 68q26 28 37 63zM373 260q40 0 54 35q5 15 4 31q-19 191 -140 192q-103 0 -129 -155q-3 -20 -5 -41q-3 -41 32 -56q13 -6 27 -6h157z" glyph-name="egrave" horiz-adv-x="543" unicode="è"/>
<glyph d="M291 600q-24 0 -29 21q-1 9 2 18l27 71q9 25 39 36q10 4 18 4h18q27 0 33 -23q3 -15 -5 -28l-43 -70q-11 -19 -41 -27q-6 -2 -11 -2h-8zM498 133q3 5 9 4q5 -4 4 -9q-25 -81 -116 -117q-51 -20 -110 -20q-159 0 -209 138q-20 57 -20 131q0 206 144 255q41 14 91 14 q207 -2 232 -219q5 -45 -36 -57q-11 -3 -22 -3h-248q-46 0 -57 -37q-3 -11 -2 -23q16 -171 109 -187q9 -1 18 -1q112 0 176 68q26 28 37 63zM373 260q40 0 54 35q5 15 4 31q-19 191 -140 192q-103 0 -129 -155q-3 -20 -5 -41q-3 -41 32 -56q13 -6 27 -6h157z" glyph-name="eacute" horiz-adv-x="543" unicode="é"/>
<glyph d="M302 676q-10 4 -18 -3q-2 -3 -3 -3l-59 -54q-17 -12 -42 -16h-17q-18 0 -21 16q0 9 5 16l80 96q10 13 39 21q5 1 8 1h34q19 0 42 -17l5 -5l80 -96q12 -16 -2 -27q-6 -5 -13 -5h-12h-3h-4h-3h-3h-3h-4h-3h-7l-40 46q-22 22 -36 30zM498 133q3 5 9 4q5 -4 4 -9 q-25 -81 -116 -117q-51 -20 -110 -20q-159 0 -209 138q-20 57 -20 131q0 206 144 255q41 14 91 14q207 -2 232 -219q5 -45 -36 -57q-11 -3 -22 -3h-248q-46 0 -57 -37q-3 -11 -2 -23q16 -171 109 -187q9 -1 18 -1q112 0 176 68q26 28 37 63zM373 260q40 0 54 35q5 15 4 31 q-19 191 -140 192q-103 0 -129 -155q-3 -20 -5 -41q-3 -41 32 -56q13 -6 27 -6h157z" glyph-name="ecircumflex" horiz-adv-x="543" unicode="ê"/>
<glyph d="M367 600q-33 0 -46 30q-4 10 -4 20q0 32 30 45q10 4 20 4h1q32 0 45 -29q4 -10 4 -20q0 -33 -29 -46q-10 -4 -20 -4h-1zM215 600q-33 0 -46 30q-4 10 -4 20q0 32 30 45q10 4 20 4h1q32 0 45 -29q4 -10 4 -20q0 -33 -29 -46q-10 -4 -20 -4h-1zM498 133q3 5 9 4q5 -4 4 -9 q-25 -81 -116 -117q-51 -20 -110 -20q-159 0 -209 138q-20 57 -20 131q0 206 144 255q41 14 91 14q207 -2 232 -219q5 -45 -36 -57q-11 -3 -22 -3h-248q-46 0 -57 -37q-3 -11 -2 -23q16 -171 109 -187q9 -1 18 -1q112 0 176 68q26 28 37 63zM373 260q40 0 54 35q5 15 4 31 q-19 191 -140 192q-103 0 -129 -155q-3 -20 -5 -41q-3 -41 32 -56q13 -6 27 -6h157z" glyph-name="edieresis" horiz-adv-x="543" unicode="ë"/>
<glyph d="M159 600q-22 0 -45 20q-5 5 -7 9l-43 70q-15 25 4 42q10 9 24 9h18q27 0 49 -26q5 -8 8 -14l27 -71q9 -23 -11 -35q-8 -4 -16 -4h-8zM167 0q-30 0 -42 28q-4 9 -4 18v428q0 30 28 42q9 4 18 4q30 0 42 -28q4 -9 4 -18v-428q0 -30 -28 -42q-9 -4 -18 -4z" glyph-name="igrave" horiz-adv-x="283" unicode="ì"/>
<glyph d="M167 600q-24 0 -29 21q-1 9 2 18l27 71q9 25 39 36q10 4 18 4h18q27 0 33 -23q3 -15 -5 -28l-43 -70q-11 -19 -41 -27q-6 -2 -11 -2h-8zM167 0q-30 0 -42 28q-4 9 -4 18v428q0 30 28 42q9 4 18 4q30 0 42 -28q4 -9 4 -18v-428q0 -30 -28 -42q-9 -4 -18 -4z" glyph-name="iacute" horiz-adv-x="283" unicode="í"/>
<glyph d="M178 676q-10 4 -18 -3q-2 -3 -3 -3l-59 -54q-17 -12 -42 -16h-17q-18 0 -21 16q0 9 5 16l80 96q10 13 39 21q5 1 8 1h34q19 0 42 -17l5 -5l80 -96q12 -16 -2 -27q-6 -5 -13 -5h-12h-3h-4h-3h-3h-3h-4h-3h-7l-40 46q-22 22 -36 30zM167 0q-30 0 -42 28q-4 9 -4 18v428 q0 30 28 42q9 4 18 4q30 0 42 -28q4 -9 4 -18v-428q0 -30 -28 -42q-9 -4 -18 -4z" glyph-name="icircumflex" horiz-adv-x="283" unicode="î"/>
<glyph d="M265 600q-33 0 -46 30q-4 10 -4 20q0 32 30 45q10 4 20 4q32 0 45 -29q4 -10 4 -20q0 -33 -29 -46q-10 -4 -20 -4zM70 600q-33 0 -46 30q-4 10 -4 20q0 32 30 45q10 4 20 4h1q32 0 45 -29q4 -10 4 -20q0 -33 -29 -46q-10 -4 -20 -4h-1zM167 0q-30 0 -42 28q-4 9 -4 18 v428q0 30 28 42q9 4 18 4q30 0 42 -28q4 -9 4 -18v-428q0 -30 -28 -42q-9 -4 -18 -4z" glyph-name="idieresis" horiz-adv-x="283" unicode="ï"/>
<glyph d="M199 621q-1 -14 -15 -20q-4 -1 -6 -1h-14q-27 0 -32 23q-1 6 0 12q10 79 57 98q4 1 7 2q17 3 20 -15v-9l1 -1q0 6 -0.5 10.5l-1 9t-1.5 6.5v2q38 0 117 -73q3 -2 4 -3q2 -2 3 -1l3 3q13 9 16 44q1 14 15 20q4 1 6 1h14q26 0 30 -24q1 -6 1 -11q-12 -79 -56 -98 q-25 -10 -27 18v2l-2 11l-3 35l7 -71q-22 0 -67 41q-40 34 -55 35q-17 -2 -21 -46zM479 46q0 -30 -28 -43q-9 -3 -18 -4q-30 0 -42 28q-4 9 -4 18v269q0 173 -46 194q-6 3 -11 3q-93 0 -137 -76q-27 -45 -27 -106v-284q0 -31 -28 -43q-9 -3 -17 -3q-32 0 -43 29q-3 8 -3 17 v429q0 31 29 42q8 3 17 3q30 0 42 -28q3 -9 3 -17v-48q0 -6 10 -4q3 1 4 2q36 85 126 99q15 2 30 2q94 0 127 -101q16 -46 16 -109v-269z" glyph-name="ntilde" horiz-adv-x="544" unicode="ñ"/>
<glyph d="M290 600q-22 0 -45 20q-5 5 -7 9l-43 70q-15 25 4 42q10 9 24 9h18q27 0 49 -26q5 -8 8 -14l27 -71q9 -23 -11 -35q-8 -4 -16 -4h-8zM155 260q0 -212 99 -251q21 -8 44 -8q99 0 130 131q13 55 13 128q0 212 -99 251q-21 8 -44 8q-99 0 -130 -131q-13 -55 -13 -128z M56 260q0 204 146 254q43 15 96 15q178 0 226 -154q16 -51 16 -115q0 -204 -146 -254q-43 -15 -96 -15q-178 0 -226 154q-16 51 -16 115z" glyph-name="ograve" horiz-adv-x="590" unicode="ò"/>
<glyph d="M298 600q-24 0 -29 21q-1 9 2 18l27 71q9 25 39 36q10 4 18 4h18q27 0 33 -23q3 -15 -5 -28l-43 -70q-11 -19 -41 -27q-6 -2 -11 -2h-8zM155 260q0 -212 99 -251q21 -8 44 -8q99 0 130 131q13 55 13 128q0 212 -99 251q-21 8 -44 8q-99 0 -130 -131q-13 -55 -13 -128z M56 260q0 204 146 254q43 15 96 15q178 0 226 -154q16 -51 16 -115q0 -204 -146 -254q-43 -15 -96 -15q-178 0 -226 154q-16 51 -16 115z" glyph-name="oacute" horiz-adv-x="590" unicode="ó"/>
<glyph d="M309 676q-10 4 -18 -3q-2 -3 -3 -3l-59 -54q-17 -12 -42 -16h-17q-18 0 -21 16q0 9 5 16l80 96q10 13 39 21q5 1 8 1h34q19 0 42 -17l5 -5l80 -96q12 -16 -2 -27q-6 -5 -13 -5h-12h-3h-4h-3h-3h-3h-4h-3h-7l-40 46q-22 22 -36 30zM155 260q0 -212 99 -251q21 -8 44 -8 q99 0 130 131q13 55 13 128q0 212 -99 251q-21 8 -44 8q-99 0 -130 -131q-13 -55 -13 -128zM56 260q0 204 146 254q43 15 96 15q178 0 226 -154q16 -51 16 -115q0 -204 -146 -254q-43 -15 -96 -15q-178 0 -226 154q-16 51 -16 115z" glyph-name="ocircumflex" horiz-adv-x="590" unicode="ô"/>
<glyph d="M219 621q-1 -14 -15 -20q-4 -1 -6 -1h-13q-28 0 -32 25v10q11 82 59 99q3 1 4 1q17 3 20 -15v-9l1 -1q0 6 -0.5 10.5l-1 9t-1.5 6.5v2q38 0 117 -73q3 -2 4 -3q2 -2 3 -1l3 3q13 9 16 44q1 14 15 20q4 1 6 1h14q26 0 30 -24q1 -6 1 -11q-12 -79 -56 -98q-25 -10 -27 18v2 l-2 11l-3 35l7 -71q-21 0 -67 41q-38 34 -54 35q-18 0 -22 -42v-4zM155 260q0 -212 99 -251q21 -8 44 -8q99 0 130 131q13 55 13 128q0 212 -99 251q-21 8 -44 8q-99 0 -130 -131q-13 -55 -13 -128zM56 260q0 204 146 254q43 15 96 15q178 0 226 -154q16 -51 16 -115 q0 -204 -146 -254q-43 -15 -96 -15q-178 0 -226 154q-16 51 -16 115z" glyph-name="otilde" horiz-adv-x="590" unicode="õ"/>
<glyph d="M374 600q-33 0 -46 30q-4 10 -4 20q0 32 30 45q10 4 20 4h1q32 0 45 -29q4 -10 4 -20q0 -33 -29 -46q-10 -4 -20 -4h-1zM222 600q-33 0 -46 30q-4 10 -4 20q0 32 30 45q10 4 20 4h1q32 0 45 -29q4 -10 4 -20q0 -33 -29 -46q-10 -4 -20 -4h-1zM155 260q0 -212 99 -251 q21 -8 44 -8q99 0 130 131q13 55 13 128q0 212 -99 251q-21 8 -44 8q-99 0 -130 -131q-13 -55 -13 -128zM56 260q0 204 146 254q43 15 96 15q178 0 226 -154q16 -51 16 -115q0 -204 -146 -254q-43 -15 -96 -15q-178 0 -226 154q-16 51 -16 115z" glyph-name="odieresis" horiz-adv-x="590" unicode="ö"/>
<glyph d="M56 260q0 204 146 254q43 15 96 15q83 0 138 -35q17 -11 33 -1l5 5l13 16q15 13 33 15q9 0 10 -8q-1 -4 -3 -7l-27 -33q-12 -15 -4 -42q2 -6 4 -9q40 -66 40 -169q0 -204 -146 -254q-43 -15 -96 -15q-83 0 -138 35q-17 11 -33 1l-5 -5l-13 -16q-15 -13 -33 -15 q-9 0 -10 8q1 4 3 7l27 33q12 15 4 42q-2 6 -4 9q-40 66 -40 169zM396 403q20 27 7 53q-38 63 -105 64q-99 0 -130 -131q-13 -55 -13 -128q0 -65 10 -112q1 -10 10 -10q4 2 6 4zM432 372q-1 10 -10 10q-4 -2 -6 -4l-216 -261q-20 -27 -6 -52q37 -63 105 -64q99 0 130 131 q13 55 13 128q0 65 -10 112z" glyph-name="oslash" horiz-adv-x="590" unicode="ø"/>
<glyph d="M262 600q-22 0 -45 20q-5 5 -7 9l-44 70q-14 25 5 42q10 9 24 9h17q27 0 49 -26q5 -8 8 -14l27 -71q9 -23 -10 -35q-8 -4 -16 -4h-8zM468 45q0 -30 -28 -42q-9 -3 -17 -3q-30 0 -42 28q-3 9 -3 17v26q0 2 -2.5 3t-5.5 0.5t-3 -2.5q-33 -72 -113 -80q-9 -1 -18 -1 q-116 0 -148 82q-17 43 -17 117v285q0 31 29 42q8 3 17 3q30 0 42 -28q3 -9 3 -17v-285q0 -145 41 -175q16 -12 38 -12q83 0 119 68q17 34 17 77v327q0 31 29 42q8 3 17 3q30 0 42 -28q3 -9 3 -17v-430z" glyph-name="ugrave" horiz-adv-x="538" unicode="ù"/>
<glyph d="M270 600q-24 0 -29 21q-1 9 2 18l27 71q9 25 39 36q10 4 18 4h18q26 0 32 -23q3 -15 -4 -28l-44 -70q-11 -19 -41 -27q-6 -2 -11 -2h-7zM468 45q0 -30 -28 -42q-9 -3 -17 -3q-30 0 -42 28q-3 9 -3 17v26q0 2 -2.5 3t-5.5 0.5t-3 -2.5q-33 -72 -113 -80q-9 -1 -18 -1 q-116 0 -148 82q-17 43 -17 117v285q0 31 29 42q8 3 17 3q30 0 42 -28q3 -9 3 -17v-285q0 -145 41 -175q16 -12 38 -12q83 0 119 68q17 34 17 77v327q0 31 29 42q8 3 17 3q30 0 42 -28q3 -9 3 -17v-430z" glyph-name="uacute" horiz-adv-x="538" unicode="ú"/>
<glyph d="M281 676q-10 4 -18 -3q-2 -3 -3 -3l-59 -54q-17 -12 -42 -16h-17q-18 0 -21 16q0 9 5 16l79 96q10 13 39 21q5 1 8 1h35q19 0 42 -17l5 -5l79 -96q13 -14 0 -26q-7 -6 -15 -6h-12h-3h-3h-4h-3h-3h-3h-3h-8l-39 46q-22 22 -36 30zM468 45q0 -30 -28 -42q-9 -3 -17 -3 q-30 0 -42 28q-3 9 -3 17v26q0 2 -2.5 3t-5.5 0.5t-3 -2.5q-33 -72 -113 -80q-9 -1 -18 -1q-116 0 -148 82q-17 43 -17 117v285q0 31 29 42q8 3 17 3q30 0 42 -28q3 -9 3 -17v-285q0 -145 41 -175q16 -12 38 -12q83 0 119 68q17 34 17 77v327q0 31 29 42q8 3 17 3 q30 0 42 -28q3 -9 3 -17v-430z" glyph-name="ucircumflex" horiz-adv-x="538" unicode="û"/>
<glyph d="M346 600q-33 0 -46 30q-4 10 -4 20q0 32 30 45q10 4 20 4q32 0 45 -29q4 -10 4 -20q0 -33 -29 -46q-10 -4 -20 -4zM194 600q-33 0 -46 30q-4 10 -4 20q0 32 30 45q10 4 20 4q32 0 45 -29q4 -10 4 -20q0 -33 -29 -46q-10 -4 -20 -4zM468 45q0 -30 -28 -42q-9 -3 -17 -3 q-30 0 -42 28q-3 9 -3 17v26q0 2 -2.5 3t-5.5 0.5t-3 -2.5q-33 -72 -113 -80q-9 -1 -18 -1q-116 0 -148 82q-17 43 -17 117v285q0 31 29 42q8 3 17 3q30 0 42 -28q3 -9 3 -17v-285q0 -145 41 -175q16 -12 38 -12q83 0 119 68q17 34 17 77v327q0 31 29 42q8 3 17 3 q30 0 42 -28q3 -9 3 -17v-430z" glyph-name="udieresis" horiz-adv-x="538" unicode="ü"/>
<glyph d="M237 600q-24 0 -29 21q-1 9 2 18l27 71q9 25 39 36q10 4 18 4h18q26 0 32 -23q3 -15 -4 -28l-44 -70q-11 -19 -41 -27q-6 -2 -11 -2h-7zM247 -58l-2 1q-37 -102 -78 -128q-27 -16 -68 -16h-44q-5 1 -6 6q1 5 6 6h44q58 0 89 42q22 30 46 94l2 6v3.5v5.5v3l-203 506 q-11 28 13 43q9 5 20 5h24q20 0 34 -19q2 -3 3 -6l10 -25l90 -225q16 -39 55 -40t57 35q2 4 3 7l81 226l7 22l7 19q5 7 11 8q6 -1 5 -8l-4 -12l-10 -31l-143 -394z" glyph-name="yacute" horiz-adv-x="467" unicode="ý"/>
<glyph d="M122 750h23q18 0 21 -17q1 -3 1 -5v-320q0 -7 10 -7q4 2 5 3q46 124 173 125q100 0 154 -96q40 -71 40 -173q0 -151 -80 -225q-49 -44 -114 -44q-128 1 -173 125q-2 6 -12 1q-2 -3 -3 -5v-317q0 -30 -28 -42q-9 -3 -17 -3q-31 0 -43 28q-3 9 -3 17v932q5 19 23 23h23z M167 260q0 -196 120 -236q27 -9 58 -9q55 0 84 89q21 65 21 156q0 171 -54 234q-21 23 -46 24q-130 0 -168 -137q-15 -53 -15 -121z" glyph-name="thorn" horiz-adv-x="599" unicode="þ"/>
</font>
</defs>
</svg>
