<svg width="9" height="14" viewBox="0 0 9 14" fill="none" xmlns="http://www.w3.org/2000/svg">
<path d="M7.99695 7.6642C8.19226 7.50795 8.27038 7.27357 8.27038 7.00013C8.27038 6.76576 8.19226 6.53138 7.99695 6.33607L2.68445 1.02357C2.5282 0.867322 2.29382 0.750134 2.02038 0.750134C1.78601 0.750134 1.55163 0.867322 1.35632 1.02357L0.496947 1.92201C0.340697 2.11732 0.223509 2.3517 0.223509 2.58607C0.223509 2.85951 0.340697 3.09388 0.496947 3.25013L4.24695 7.00013L0.496947 10.7501C0.340697 10.9454 0.22351 11.1798 0.22351 11.4142C0.22351 11.6876 0.340697 11.922 0.496947 12.0783L1.35632 12.9767C1.55163 13.172 1.78601 13.2501 2.02038 13.2501C2.29382 13.2501 2.5282 13.172 2.68445 12.9767L7.99695 7.6642Z" fill="#333333" fill-opacity="0.5"/>
</svg>
