<svg width="9" height="14" viewBox="0 0 9 14" fill="none" xmlns="http://www.w3.org/2000/svg">
<path d="M0.496949 6.33605C0.301636 6.4923 0.223511 6.72667 0.223511 7.00011C0.223511 7.23448 0.301636 7.46886 0.496949 7.66417L5.80945 12.9767C5.9657 13.1329 6.20007 13.2501 6.47351 13.2501C6.70789 13.2501 6.94226 13.1329 7.13757 12.9767L7.99695 12.0782C8.1532 11.8829 8.27039 11.6485 8.27039 11.4142C8.27039 11.1407 8.1532 10.9064 7.99695 10.7501L4.24695 7.00011L7.99695 3.25011C8.1532 3.0548 8.27039 2.82042 8.27039 2.58605C8.27039 2.31261 8.1532 2.07823 7.99695 1.92198L7.13757 1.02355C6.94226 0.828234 6.70789 0.750109 6.47351 0.750109C6.20007 0.750109 5.9657 0.828234 5.80945 1.02355L0.496949 6.33605Z" fill="#333333" fill-opacity="0.5"/>
</svg>
